<svg width="834" height="261" viewBox="0 0 834 261" fill="none" xmlns="http://www.w3.org/2000/svg">
<g clip-path="url(#clip0_201_2)">
<path d="M0.300049 99.7C8.90005 113.2 16.7 126.8 25 139.9C33.2 153 41.7001 165.6 50.8001 176.6C55.4001 182.1 60.1001 187.1 64.9001 191.3C67.3001 193.4 69.7001 195.3 72.1001 196.8C74.5001 198.3 76.9001 199.6 79.1001 200.5C81.3001 201.4 83.4 201.9 85.3 202.2C87.2 202.5 89 202.4 90.7 202.2C94.1 201.7 97.5001 200.4 101.6 198.2C101.8 198.1 102.1 197.9 102.4 197.8L103.2 197.3L104 196.8C104.3 196.6 104.5 196.4 104.8 196.3L106.4 195.2C106.9 194.8 107.5 194.4 108 194C108.5 193.6 109.1 193.2 109.6 192.8L111.2 191.5L112.8 190.1L113.6 189.4L114.4 188.6C115.5 187.6 116.6 186.6 117.7 185.5L119.4 183.9L121.1 182.2C121.6 181.6 122.2 181.1 122.8 180.5L124.4 178.7C125.5 177.5 126.6 176.3 127.7 175C128.2 174.4 128.8 173.8 129.3 173.1L130.9 171.2L132.5 169.3L134.1 167.3L135.7 165.3C136.2 164.6 136.7 163.9 137.3 163.2L138.9 161.1L139.7 160.1L141.2 158.3C145.3 153.3 150.2 148.8 155.5 144.9C160.9 141.1 166.8 137.9 173 135.5C185.4 130.7 199 129.2 212.2 131C225.5 132.8 238.5 138.3 249.2 146.6L251.2 148.2C251.9 148.7 252.5 149.3 253.1 149.9C253.7 150.5 254.4 151 255 151.6L256.8 153.4C258 154.6 259.1 155.8 260.2 157.1L262.3 159.5C264.4 161.9 266.6 164.2 268.7 166.4C269.8 167.5 270.9 168.6 272 169.6L273.6 171.1C274.1 171.6 274.7 172.1 275.2 172.5C277.2 174.3 279.2 175.8 281.2 177.2C285.1 180 288.9 181.8 291.7 182.7C293.1 183.1 294.2 183.4 295.1 183.5C296 183.6 296.6 183.6 297.2 183.5C297.8 183.4 298.4 183.3 299.3 182.9C300.2 182.5 301.2 181.9 302.5 180.9C303.7 179.9 305.2 178.5 306.5 176.9C307.9 175.2 309.7 172.8 311.4 170.2C312.3 169 313.2 167.5 314.1 166.1L315.4 164L316.8 161.7L318.2 159.4L318.9 158.3L319.6 157.1L322.4 152.4L333.7 132.5C335.6 129.1 337.6 125.7 339.5 122.3C341.5 118.9 343.5 115.4 345.6 112C349.7 105.1 354 98.2 358.6 91.3L362.1 86.1L363.9 83.5L365.8 80.9L369.5 75.8C370.9 74 372.3 72.1 373.8 70.3C379.7 63.2 386.1 56.6 393.1 50.7L395.7 48.5L398.4 46.4C399.3 45.7 400.2 45 401.1 44.4L403.9 42.4C407.6 39.8 411.5 37.4 415.5 35.2C423.4 30.8 431.7 27.3 440.2 24.6C448.7 21.9 457.3 20.2 465.9 19.3C468.1 19.1 470.2 18.9 472.4 18.8L475.6 18.7C476.7 18.7 477.7 18.6 478.8 18.7C483.1 18.7 487.3 18.9 491.5 19.3C508.3 21 524.3 26.1 538.2 34C522.2 33.5 506.9 34.9 492.8 38.6C485.7 40.4 478.9 42.8 472.5 45.6C466.1 48.5 460 51.8 454.3 55.6C448.6 59.4 443.4 63.5 438.6 68.1C436.2 70.4 433.9 72.7 431.7 75.2L430.1 77C429.6 77.6 429.1 78.3 428.5 78.9L427 81L425.5 82.9C421.6 88.1 418.1 93.5 415.2 99.1C414.5 100.5 413.8 101.9 413.1 103.3L410.8 108.1L409.7 110.5L408.6 113L406.3 117.9C403.4 124.6 400.4 131.4 397.5 138.4L388.7 159.6C385.7 166.7 382.6 174.1 379.3 181.4L376.7 187L376.1 188.4L375.4 189.8L374 192.7L372.6 195.6L371.1 198.5C370.1 200.5 369.1 202.4 367.9 204.4C365.6 208.4 363.1 212.6 359.9 217.1C356.6 221.7 352.9 226.2 348.4 230.5C344 234.8 338.8 238.8 332.9 242.2C327 245.6 320.4 248.4 313.4 250.1C306.5 251.9 299.3 252.5 292.4 252.3C285.5 252.1 279 250.9 272.9 249.2C266.8 247.5 261.3 245.2 256.1 242.7C251 240.1 246.2 237.3 241.8 234.2C237.4 231.1 233.4 227.9 229.6 224.5C228.6 223.6 227.7 222.8 226.9 222C226 221.2 225.2 220.4 224.3 219.5C222.6 217.8 220.9 216.2 219.3 214.5C216.1 211.1 213 207.6 210.1 204.1L209 202.8L208.5 202.2L208.4 202.1C208.2 201.9 208.1 201.7 207.9 201.5C207.8 201.4 207.7 201.3 207.7 201.2C207.6 201.1 207.5 201 207.4 200.9C207.3 200.8 207.2 200.7 207.2 200.6C207.1 200.5 207 200.4 206.9 200.4C205.5 199 203.8 198.2 201.8 197.6C200.8 197.3 199.7 197.2 198.5 197.2C197.9 197.2 197.4 197.2 196.8 197.2C196.2 197.3 195.7 197.3 195.1 197.5C192.9 198 190.8 198.9 188.8 200.6L188.6 200.8L188.5 200.9C188.5 200.9 188.5 200.9 188.4 201L187.3 202.2L185.1 204.6C183.6 206.2 182.1 207.7 180.5 209.3L178.2 211.6L175.8 213.9L173.4 216.2C172.6 217 171.7 217.7 170.9 218.5L168.4 220.7C167.6 221.4 166.7 222.2 165.8 222.9L163.2 225.1C162.3 225.8 161.4 226.5 160.5 227.2L157.8 229.3L154.9 231.4C153.9 232.1 153 232.8 152 233.5L149 235.5C141 240.7 131.9 245.6 121.5 249C116.3 250.7 110.7 252 104.9 252.6C99.1 253.3 93 253.3 86.9 252.4C80.9 251.6 75.0001 249.9 69.6001 247.5C64.2001 245.2 59.3 242.2 55 239C50.7 235.8 46.9 232.2 43.5 228.6C40.1 225 37.2 221.2 34.6 217.4C29.3 209.8 25.3001 202 21.8001 194.2C18.4001 186.4 15.6 178.6 13.2 170.7C12.6 168.7 12 166.8 11.5 164.8C11 162.8 10.4001 160.9 9.90005 158.9C8.90005 155 8.00005 151 7.10005 147.1C3.80005 131.4 1.60005 115.7 0.300049 99.7Z" fill="url(#paint0_linear_201_2)"/>
<path d="M205.1 111.4C235.752 111.4 260.6 86.5518 260.6 55.9C260.6 25.2482 235.752 0.400024 205.1 0.400024C174.448 0.400024 149.6 25.2482 149.6 55.9C149.6 86.5518 174.448 111.4 205.1 111.4Z" fill="url(#paint1_linear_201_2)"/>
<path d="M616.8 83.4L589.4 169.1H558.4L544.6 123.3L530 169.1H499L471.6 83.4H501.3L516.2 132.1L532 83.4H558.6L573.5 132.7L589.3 83.4H616.8Z" fill="#294B69"/>
<path d="M641.8 165.4C634.5 161.6 628.8 156.3 624.7 149.5C620.6 142.7 618.5 135 618.5 126.3C618.5 117.7 620.6 109.9 624.7 103.1C628.8 96.3 634.5 91 641.8 87.2C649.1 83.4 657.2 81.5 666.3 81.5C674.6 81.5 682.1 83 688.6 85.9C695.1 88.8 700.5 93.1 704.8 98.6L686.6 114.9C681.3 108.2 675.1 104.9 667.9 104.9C661.9 104.9 657 106.8 653.3 110.7C649.6 114.6 647.8 119.8 647.8 126.3C647.8 132.8 649.6 138 653.3 141.9C657 145.8 661.8 147.7 667.9 147.7C675.1 147.7 681.3 144.4 686.6 137.7L704.8 154C700.6 159.6 695.2 163.8 688.6 166.7C682.1 169.6 674.6 171.1 666.3 171.1C657.2 171.1 649.1 169.2 641.8 165.4Z" fill="#294B69"/>
<path d="M723 168.7C716.3 167.1 710.7 165 706.4 162.3L715.7 141.2C719.8 143.6 724.3 145.5 729.4 146.9C734.5 148.3 739.3 149 744 149C748 149 750.9 148.6 752.6 147.8C754.3 147 755.2 145.9 755.2 144.3C755.2 142.5 754.1 141.2 751.8 140.3C749.6 139.4 745.9 138.4 740.7 137.4C734.1 136 728.6 134.5 724.2 132.9C719.8 131.3 716 128.7 712.7 125.1C709.4 121.5 707.8 116.6 707.8 110.3C707.8 104.9 709.3 100 712.3 95.6C715.3 91.2 719.8 87.7 725.8 85.2C731.8 82.7 739.1 81.4 747.7 81.4C753.6 81.4 759.3 82 765 83.3C770.7 84.6 775.7 86.4 780 88.9L771.3 109.8C762.9 105.6 754.9 103.4 747.4 103.4C740 103.4 736.3 105.2 736.3 108.8C736.3 110.5 737.4 111.8 739.6 112.7C741.8 113.6 745.4 114.5 750.5 115.5C757 116.7 762.5 118.1 767 119.7C771.5 121.3 775.4 123.9 778.7 127.5C782 131.1 783.7 136 783.7 142.2C783.7 147.6 782.2 152.5 779.2 156.8C776.2 161.2 771.7 164.6 765.7 167.2C759.7 169.8 752.4 171.1 743.8 171.1C736.7 171.1 729.8 170.3 723 168.7Z" fill="#294B69"/>
<path d="M501.7 187.1L482.4 244.2H476L459.3 195.5L442.5 244.2H436.2L417 187.1H423.2L439.7 236.2L456.7 187.1H462.3L479.1 236.5L495.8 187.1H501.7Z" fill="#294B69"/>
<path d="M514.6 241.8C511.3 239.9 508.7 237.3 506.8 234C504.9 230.7 503.9 226.9 503.9 222.7C503.9 218.5 504.9 214.8 506.8 211.4C508.7 208.1 511.3 205.5 514.6 203.7C517.9 201.9 521.6 200.9 525.8 200.9C529.9 200.9 533.7 201.8 537 203.7C540.3 205.5 542.9 208.1 544.8 211.4C546.7 214.7 547.6 218.5 547.6 222.7C547.6 226.9 546.7 230.6 544.8 234C542.9 237.3 540.3 239.9 537 241.8C533.7 243.7 530 244.6 525.8 244.6C521.6 244.6 517.9 243.7 514.6 241.8ZM534 237.4C536.4 236 538.3 234 539.7 231.5C541.1 228.9 541.7 226 541.7 222.8C541.7 219.6 541 216.6 539.7 214.1C538.3 211.5 536.4 209.6 534 208.2C531.6 206.8 528.8 206.1 525.8 206.1C522.8 206.1 520 206.8 517.6 208.2C515.2 209.6 513.3 211.6 511.9 214.1C510.5 216.7 509.8 219.6 509.8 222.8C509.8 226 510.5 229 511.9 231.5C513.3 234.1 515.2 236 517.6 237.4C520 238.8 522.8 239.5 525.8 239.5C528.8 239.5 531.5 238.8 534 237.4Z" fill="#294B69"/>
<path d="M594.1 205.7C597.3 208.8 598.9 213.4 598.9 219.4V244.3H593.1V220C593.1 215.5 592 212.1 589.8 209.8C587.6 207.5 584.4 206.3 580.3 206.3C575.7 206.3 572 207.7 569.3 210.4C566.6 213.1 565.3 216.9 565.3 221.8V244.3H559.5V201.4H565V209.3C566.6 206.7 568.8 204.7 571.6 203.2C574.4 201.8 577.6 201 581.3 201C586.6 201 590.9 202.5 594.1 205.7Z" fill="#294B69"/>
<path d="M653.9 183.7V244.2H648.4V235.7C646.7 238.6 644.4 240.8 641.5 242.3C638.6 243.8 635.4 244.6 631.8 244.6C627.8 244.6 624.1 243.7 620.9 241.8C617.7 239.9 615.1 237.4 613.2 234C611.4 230.7 610.4 226.9 610.4 222.7C610.4 218.5 611.3 214.7 613.2 211.4C615 208.1 617.6 205.5 620.9 203.7C624.2 201.9 627.8 201 631.8 201C635.3 201 638.4 201.7 641.2 203.2C644 204.6 646.3 206.7 648.1 209.5V183.7H653.9ZM640.4 237.4C642.8 236 644.7 234 646.1 231.5C647.5 228.9 648.2 226 648.2 222.8C648.2 219.6 647.5 216.6 646.1 214.1C644.7 211.5 642.8 209.6 640.4 208.2C638 206.8 635.3 206.1 632.3 206.1C629.3 206.1 626.5 206.8 624.1 208.2C621.7 209.6 619.8 211.6 618.4 214.1C617 216.7 616.3 219.6 616.3 222.8C616.3 226 617 229 618.4 231.5C619.8 234.1 621.7 236 624.1 237.4C626.5 238.8 629.3 239.5 632.3 239.5C635.3 239.5 638 238.8 640.4 237.4Z" fill="#294B69"/>
<path d="M700.3 239.4V244.2H665.4V240.4L692.4 206.2H665.9V201.3H699.8V205.1L672.8 239.4H700.3Z" fill="#294B69"/>
<path d="M717.4 241.8C714.1 239.9 711.5 237.3 709.6 234C707.7 230.7 706.7 226.9 706.7 222.7C706.7 218.5 707.7 214.8 709.6 211.4C711.5 208.1 714.1 205.5 717.4 203.7C720.7 201.9 724.4 200.9 728.6 200.9C732.7 200.9 736.5 201.8 739.8 203.7C743.1 205.5 745.7 208.1 747.6 211.4C749.5 214.7 750.4 218.5 750.4 222.7C750.4 226.9 749.5 230.6 747.6 234C745.7 237.3 743.1 239.9 739.8 241.8C736.5 243.7 732.8 244.6 728.6 244.6C724.4 244.6 720.7 243.7 717.4 241.8ZM736.7 237.4C739.1 236 741 234 742.4 231.5C743.8 228.9 744.4 226 744.4 222.8C744.4 219.6 743.7 216.6 742.4 214.1C741 211.5 739.1 209.6 736.7 208.2C734.3 206.8 731.5 206.1 728.5 206.1C725.5 206.1 722.7 206.8 720.3 208.2C717.9 209.6 716 211.6 714.6 214.1C713.2 216.7 712.5 219.6 712.5 222.8C712.5 226 713.2 229 714.6 231.5C716 234.1 717.9 236 720.3 237.4C722.7 238.8 725.5 239.5 728.5 239.5C731.6 239.5 734.3 238.8 736.7 237.4Z" fill="#294B69"/>
<path d="M773.8 203.2C776.5 201.7 779.8 201 783.8 201V206.6L782.4 206.5C777.9 206.5 774.4 207.9 771.8 210.7C769.2 213.5 768 217.4 768 222.4V244.3H762.2V201.4H767.7V209.8C769.1 206.8 771.1 204.6 773.8 203.2Z" fill="#294B69"/>
<path d="M833.5 201.3V239C833.5 246.3 831.7 251.7 828.2 255.2C824.6 258.7 819.3 260.5 812.1 260.5C808.1 260.5 804.4 259.9 800.8 258.7C797.2 257.5 794.3 255.9 792.1 253.8L795 249.4C797.1 251.2 799.6 252.7 802.5 253.7C805.5 254.7 808.6 255.2 811.8 255.2C817.2 255.2 821.2 253.9 823.8 251.4C826.4 248.9 827.6 244.9 827.6 239.6V234.1C825.8 236.8 823.5 238.9 820.5 240.3C817.6 241.7 814.4 242.4 810.8 242.4C806.8 242.4 803.1 241.5 799.8 239.7C796.5 237.9 793.9 235.5 792.1 232.3C790.2 229.1 789.3 225.5 789.3 221.5C789.3 217.5 790.2 213.9 792.1 210.7C794 207.5 796.5 205.1 799.8 203.4C803.1 201.7 806.7 200.8 810.8 200.8C814.4 200.8 817.7 201.5 820.7 203C823.6 204.5 826 206.6 827.8 209.4V201.2H833.5V201.3ZM820 235.4C822.5 234.1 824.4 232.2 825.8 229.8C827.2 227.4 827.9 224.7 827.9 221.6C827.9 218.6 827.2 215.8 825.8 213.5C824.4 211.2 822.5 209.3 820 208C817.5 206.7 814.7 206 811.6 206C808.5 206 805.7 206.7 803.2 208C800.7 209.3 798.8 211.2 797.4 213.5C796 215.9 795.3 218.6 795.3 221.7C795.3 224.7 796 227.5 797.4 229.9C798.8 232.3 800.7 234.2 803.2 235.5C805.7 236.8 808.5 237.5 811.6 237.5C814.7 237.5 817.5 236.8 820 235.4Z" fill="#294B69"/>
</g>
<defs>
<linearGradient id="paint0_linear_201_2" x1="0.318749" y1="135.921" x2="538.225" y2="135.921" gradientUnits="userSpaceOnUse">
<stop stop-color="#2363F8"/>
<stop offset="1" stop-color="#5CD5E5"/>
</linearGradient>
<linearGradient id="paint1_linear_201_2" x1="149.647" y1="55.9187" x2="260.625" y2="55.9187" gradientUnits="userSpaceOnUse">
<stop stop-color="#FF841F"/>
<stop offset="1" stop-color="#FCC940"/>
</linearGradient>
<clipPath id="clip0_201_2">
<rect width="834" height="261" fill="white"/>
</clipPath>
</defs>
</svg>
