<svg xmlns="http://www.w3.org/2000/svg" viewBox="0 0 833.21 260"><defs><style>.cls-1{fill:#fff;}</style></defs><g id="Layer_2" data-name="Layer 2"><g id="Layer_1-2" data-name="Layer 1"><path class="cls-1" d="M0,99.31c8.56,13.51,16.44,27.15,24.68,40.22s16.65,25.71,25.79,36.71a126.72,126.72,0,0,0,14.15,14.7,68.39,68.39,0,0,0,7.24,5.51,44.32,44.32,0,0,0,7,3.72,26.4,26.4,0,0,0,6.24,1.72,18.52,18.52,0,0,0,5.37,0,32.49,32.49,0,0,0,10.93-4,7.92,7.92,0,0,0,.76-.45l.77-.47.77-.45.79-.54,1.58-1c.53-.41,1.08-.79,1.62-1.18s1.08-.8,1.63-1.23l1.64-1.29,1.65-1.4.83-.7.82-.75c1.1-1,2.21-2,3.32-3.09l1.66-1.6,1.65-1.7c.55-.57,1.1-1.11,1.65-1.71l1.64-1.79c1.09-1.16,2.16-2.43,3.26-3.66.54-.63,1.09-1.22,1.63-1.87l1.61-1.94,1.61-1.93,1.58-2,1.58-2c.53-.66,1-1.38,1.57-2l1.58-2.06.79-1,1.5-1.82a78.52,78.52,0,0,1,108.05-11.58l2,1.58c.66.54,1.29,1.1,1.94,1.66s1.27,1.12,1.89,1.7l1.8,1.78c1.22,1.18,2.33,2.43,3.45,3.69l2.08,2.38q3.18,3.6,6.45,6.88c1.09,1.08,2.17,2.15,3.26,3.19l1.63,1.52c.55.49,1.11,1,1.6,1.41a67.3,67.3,0,0,0,6,4.7,38.08,38.08,0,0,0,10.54,5.45,17.64,17.64,0,0,0,3.42.76,8.6,8.6,0,0,0,2.11,0,6.82,6.82,0,0,0,2.11-.58,16,16,0,0,0,3.17-2,27.49,27.49,0,0,0,4-4c1.43-1.72,3.17-4.06,4.93-6.68.87-1.2,1.77-2.71,2.67-4.1l1.34-2.12,1.35-2.27,1.37-2.27.69-1.13.69-1.18,2.76-4.73,11.25-19.88c1.9-3.39,3.88-6.8,5.85-10.22s4-6.87,6.05-10.32c4.11-6.87,8.44-13.83,13-20.69l3.5-5.16,1.76-2.57,1.86-2.58,3.74-5.14c1.42-1.84,2.83-3.7,4.28-5.5a148.13,148.13,0,0,1,19.34-19.61l2.63-2.19,2.71-2.1c.91-.69,1.8-1.39,2.74-2l2.8-2c3.74-2.59,7.61-5,11.55-7.17a134.5,134.5,0,0,1,24.66-10.57,132.16,132.16,0,0,1,25.73-5.34c2.16-.19,4.32-.36,6.46-.5l3.23-.1c1.07,0,2.14-.08,3.21-.05a122.25,122.25,0,0,1,12.74.65,117.71,117.71,0,0,1,46.66,14.75,159.47,159.47,0,0,0-45.44,4.58,129.68,129.68,0,0,0-20.31,7,124.62,124.62,0,0,0-18.16,10,117.43,117.43,0,0,0-15.72,12.48c-2.36,2.31-4.7,4.6-6.85,7.06l-1.62,1.83c-.54.61-1,1.27-1.55,1.89l-1.55,1.86-1.46,1.94a119.77,119.77,0,0,0-10.32,16.2c-.73,1.4-1.42,2.82-2.14,4.21l-2.28,4.82-1.14,2.4-1.13,2.48-2.27,5C403,124.29,400.07,131,397.2,138l-8.79,21.15c-3,7.14-6.08,14.46-9.42,21.84l-2.57,5.61-.65,1.4-.69,1.43-1.39,2.86-1.41,2.86-1.53,2.93c-1.05,2-2,3.88-3.21,5.94a127.87,127.87,0,0,1-8,12.68,94.83,94.83,0,0,1-11.51,13.35,81.11,81.11,0,0,1-15.55,11.73A76,76,0,0,1,313,249.74a74.46,74.46,0,0,1-21,2.16,84.41,84.41,0,0,1-19.48-3.06,97.75,97.75,0,0,1-16.78-6.52,112.48,112.48,0,0,1-14.28-8.47,136.65,136.65,0,0,1-12.24-9.7c-1-.86-1.85-1.66-2.74-2.48s-1.74-1.64-2.6-2.47c-1.71-1.65-3.38-3.32-5-5-3.22-3.4-6.27-6.85-9.19-10.35l-1.08-1.32-.48-.58-.13-.15a4.85,4.85,0,0,0-.5-.59l-.24-.29c-.09-.09-.18-.16-.26-.25s-.16-.2-.25-.28a3,3,0,0,1-.26-.24,12.13,12.13,0,0,0-5.15-2.84,13.27,13.27,0,0,0-3.25-.44c-.56,0-1.12,0-1.69,0a13.8,13.8,0,0,0-1.69.26,14.53,14.53,0,0,0-6.35,3.12l-.19.15-.1.08,0,0-.09.08-1.1,1.19-2.21,2.36c-1.45,1.58-3,3.12-4.56,4.67l-2.31,2.31-2.4,2.29-2.4,2.28c-.8.76-1.65,1.5-2.48,2.25l-2.5,2.24c-.83.74-1.73,1.46-2.59,2.19l-2.62,2.18c-.88.73-1.81,1.43-2.71,2.15l-2.73,2.12-2.86,2.08c-1,.69-1.86,1.39-2.88,2l-3,2a116.25,116.25,0,0,1-27.46,13.47,82.45,82.45,0,0,1-16.63,3.64,72.69,72.69,0,0,1-18-.16,68.23,68.23,0,0,1-17.34-4.85,71.16,71.16,0,0,1-14.62-8.49,82.57,82.57,0,0,1-11.47-10.41A98.07,98.07,0,0,1,34.23,217a140.91,140.91,0,0,1-12.79-23.2,206.94,206.94,0,0,1-8.61-23.49c-.61-2-1.16-3.93-1.73-5.88s-1.06-3.93-1.55-5.9c-1-3.91-1.9-7.85-2.75-11.78A368.41,368.41,0,0,1,0,99.31Z"/><circle class="cls-1" cx="204.82" cy="55.49" r="55.49"/><path class="cls-1" d="M616.51,83l-27.42,85.69h-31l-13.84-45.78-14.56,45.78h-31L471.33,83h29.74L516,131.7,531.8,83h26.56l14.94,49.34L589.09,83Z"/><path class="cls-1" d="M641.48,164.94A42.63,42.63,0,0,1,624.4,149a44,44,0,0,1-6.18-23.2,44,44,0,0,1,6.18-23.2,42.56,42.56,0,0,1,17.08-15.91A52,52,0,0,1,666,81a53.7,53.7,0,0,1,22.28,4.41A41.33,41.33,0,0,1,704.4,98.16l-18.24,16.28q-7.95-10-18.73-10-9.06,0-14.56,5.81t-5.51,15.61q0,9.8,5.51,15.61t14.56,5.81q10.77,0,18.73-10l18.24,16.28a41.24,41.24,0,0,1-16.16,12.73A53.7,53.7,0,0,1,666,170.63,52.1,52.1,0,0,1,641.48,164.94Z"/><path class="cls-1" d="M722.7,168.24a55.77,55.77,0,0,1-16.59-6.42l9.31-21.06a59.25,59.25,0,0,0,13.71,5.7,53.88,53.88,0,0,0,14.57,2.14c4,0,6.85-.39,8.56-1.17a3.72,3.72,0,0,0,2.58-3.48c0-1.8-1.13-3.15-3.37-4A72.23,72.23,0,0,0,740.39,137a126.47,126.47,0,0,1-16.53-4.47,28.08,28.08,0,0,1-11.5-7.84q-4.9-5.44-4.9-14.75A25.43,25.43,0,0,1,712,95.22q4.53-6.6,13.53-10.4T747.37,81a79.65,79.65,0,0,1,17.32,1.9,54.48,54.48,0,0,1,15,5.57L771,109.42q-12.6-6.36-23.87-6.36T736,108.45c0,1.71,1.11,3,3.31,3.85a69.36,69.36,0,0,0,10.89,2.76,111.79,111.79,0,0,1,16.53,4.22,28.76,28.76,0,0,1,11.69,7.77q5,5.38,5,14.69a25.11,25.11,0,0,1-4.53,14.63q-4.53,6.56-13.53,10.41t-21.85,3.85A89.42,89.42,0,0,1,722.7,168.24Z"/><path class="cls-1" d="M501.38,186.67l-19.25,57.1h-6.37L459,195.07l-16.8,48.7H436l-19.25-57.1h6.19l16.48,49.11,17.05-49.11h5.63L478.86,236l16.72-49.35Z"/><path class="cls-1" d="M514.27,241.36a20.51,20.51,0,0,1-7.84-7.79,23.65,23.65,0,0,1,0-22.51,20.27,20.27,0,0,1,7.84-7.75,23.93,23.93,0,0,1,22.35,0,20,20,0,0,1,7.79,7.75,23.95,23.95,0,0,1,0,22.51,20.25,20.25,0,0,1-7.79,7.79,23.55,23.55,0,0,1-22.35,0Zm19.37-4.4a14.52,14.52,0,0,0,5.67-5.92,19.68,19.68,0,0,0,0-17.45,14.52,14.52,0,0,0-5.67-5.92,17.2,17.2,0,0,0-16.4,0,14.8,14.8,0,0,0-5.71,5.92,19.34,19.34,0,0,0,0,17.45,14.8,14.8,0,0,0,5.71,5.92,17.2,17.2,0,0,0,16.4,0Z"/><path class="cls-1" d="M593.76,205.23q4.77,4.68,4.77,13.66v24.88h-5.79V219.46q0-6.69-3.35-10.2t-9.54-3.5q-6.93,0-11,4.12t-4,11.38v22.51h-5.79V200.86h5.54v7.92a16.08,16.08,0,0,1,6.57-6.08,21,21,0,0,1,9.75-2.16Q589,200.54,593.76,205.23Z"/><path class="cls-1" d="M653.59,183.24v60.53H648v-8.48a17.67,17.67,0,0,1-6.89,6.6,20.16,20.16,0,0,1-9.67,2.29,21.77,21.77,0,0,1-10.93-2.78,19.78,19.78,0,0,1-7.67-7.75,24.58,24.58,0,0,1,0-22.67,19.55,19.55,0,0,1,7.67-7.71,22.05,22.05,0,0,1,10.93-2.73,20.29,20.29,0,0,1,9.42,2.16,17.93,17.93,0,0,1,6.9,6.32V183.24ZM640.09,237A14.8,14.8,0,0,0,645.8,231a19.34,19.34,0,0,0,0-17.45,14.8,14.8,0,0,0-5.71-5.92,17,17,0,0,0-16.32,0,14.8,14.8,0,0,0-5.71,5.92,19.34,19.34,0,0,0,0,17.45,14.8,14.8,0,0,0,5.71,5.92,17,17,0,0,0,16.32,0Z"/><path class="cls-1" d="M700,239v4.81H665.09v-3.83l27-34.18H665.58v-4.9h33.93v3.84l-27,34.26Z"/><path class="cls-1" d="M717.05,241.36a20.42,20.42,0,0,1-7.83-7.79,23.58,23.58,0,0,1,0-22.51,20.18,20.18,0,0,1,7.83-7.75,23.93,23.93,0,0,1,22.35,0,20,20,0,0,1,7.79,7.75,23.95,23.95,0,0,1,0,22.51,20.18,20.18,0,0,1-7.79,7.79,23.55,23.55,0,0,1-22.35,0Zm19.37-4.4a14.52,14.52,0,0,0,5.67-5.92,19.68,19.68,0,0,0,0-17.45,14.52,14.52,0,0,0-5.67-5.92,17.18,17.18,0,0,0-16.39,0,14.74,14.74,0,0,0-5.71,5.92,19.34,19.34,0,0,0,0,17.45A14.74,14.74,0,0,0,720,237a17.18,17.18,0,0,0,16.39,0Z"/><path class="cls-1" d="M773.46,202.74a20.62,20.62,0,0,1,10-2.2v5.62l-1.39-.08q-6.76,0-10.6,4.16t-3.84,11.67v21.86h-5.79V200.86h5.55v8.4A14,14,0,0,1,773.46,202.74Z"/><path class="cls-1" d="M833.21,200.86v37.69q0,10.94-5.35,16.19T811.75,260a35.91,35.91,0,0,1-11.29-1.75,23.16,23.16,0,0,1-8.69-4.86l2.93-4.4a22.06,22.06,0,0,0,7.55,4.32,28,28,0,0,0,9.34,1.55q8.16,0,12-3.79t3.83-11.79v-5.46a17.45,17.45,0,0,1-7,6.2,21.87,21.87,0,0,1-9.67,2.12,22.9,22.9,0,0,1-11-2.65,19.58,19.58,0,0,1-7.75-7.43,20.91,20.91,0,0,1-2.81-10.8A20.7,20.7,0,0,1,792,210.49a19.45,19.45,0,0,1,7.71-7.34,23,23,0,0,1,11-2.61,21.7,21.7,0,0,1,9.87,2.2,17.84,17.84,0,0,1,7.1,6.36v-8.24ZM819.67,235a14.4,14.4,0,0,0,5.83-5.59,16,16,0,0,0,2.08-8.15,15.8,15.8,0,0,0-2.08-8.12,14.66,14.66,0,0,0-5.79-5.55,18.83,18.83,0,0,0-16.81,0,14.33,14.33,0,0,0-5.79,5.55,17,17,0,0,0,0,16.31A14.49,14.49,0,0,0,802.9,235a17.39,17.39,0,0,0,8.36,2A17.67,17.67,0,0,0,819.67,235Z"/></g></g></svg>