<svg width="268" height="67" viewBox="0 0 268 67" fill="none" xmlns="http://www.w3.org/2000/svg">
<path d="M95.3792 39.3414L99.4738 43.6623C98.3309 44.7395 96.9831 45.5755 95.5108 46.1206C93.965 46.6806 92.3298 46.9527 90.6861 46.9234C88.9285 46.9288 87.1863 46.5956 85.5545 45.9419C84.0584 45.3416 82.694 44.4543 81.5382 43.3299C80.4167 42.2341 79.529 40.922 78.9285 39.4731C77.6905 36.4598 77.6905 33.0794 78.9285 30.0661C79.5279 28.6132 80.4108 27.2945 81.5257 26.1874C82.6759 25.055 84.0373 24.16 85.5326 23.5534C87.1694 22.8921 88.9211 22.5628 90.6861 22.5845C92.3113 22.5714 93.9258 22.8475 95.4544 23.3998C95.6486 23.4729 95.8397 23.5482 96.0277 23.6255C96.4638 23.8138 96.8478 24.1049 97.147 24.474C97.4463 24.8431 97.6518 25.2792 97.746 25.7451C97.8402 26.211 97.8203 26.6928 97.688 27.1493C97.5557 27.6058 97.315 28.0235 96.9863 28.3666C96.5623 28.8028 96.0152 29.0989 95.4184 29.2155C94.8216 29.3321 94.2035 29.2634 93.6467 29.0188C93.5465 28.9781 93.4462 28.9373 93.3334 28.8997C92.4957 28.6033 91.6122 28.4578 90.7237 28.4701C89.9471 28.4661 89.177 28.612 88.4556 28.8997C87.7524 29.1795 87.113 29.5986 86.5758 30.132C86.0147 30.693 85.5763 31.3647 85.2882 32.1043C84.9597 32.9473 84.798 33.8461 84.812 34.7508C84.7974 35.6515 84.9592 36.5463 85.2882 37.3847C85.5803 38.1292 86.0217 38.8057 86.5852 39.3727C87.1193 39.9153 87.7592 40.3422 88.465 40.627C89.1864 40.9147 89.9565 41.0606 90.7331 41.0566C92.7424 41.0503 94.291 40.4786 95.3792 39.3414Z" fill="#6F2595"/>
<path d="M99.2513 34.7885C99.2404 33.1663 99.5546 31.5584 100.175 30.0599C100.776 28.6083 101.664 27.2932 102.785 26.1937C103.941 25.0682 105.307 24.1807 106.805 23.5817C108.436 22.9279 110.179 22.6019 111.936 22.6222C113.711 22.5999 115.472 22.9259 117.121 23.5817C118.623 24.179 119.993 25.0666 121.153 26.1937C122.275 27.2944 123.166 28.609 123.772 30.0599C125.021 33.0883 125.021 36.4886 123.772 39.517C123.166 40.9679 122.275 42.2825 121.153 43.3832C119.991 44.51 118.618 45.3946 117.112 45.9858C115.455 46.6299 113.691 46.9492 111.914 46.9265C110.161 46.9477 108.422 46.6216 106.795 45.967C105.307 45.3682 103.949 44.4854 102.798 43.3676C101.679 42.2693 100.792 40.9579 100.188 39.5107C99.5595 38.0164 99.2408 36.4098 99.2513 34.7885ZM106.056 34.7665C106.045 35.6474 106.202 36.5223 106.519 37.344C106.806 38.0915 107.24 38.7739 107.795 39.3508C108.332 39.9047 108.977 40.3432 109.69 40.6396C110.423 40.9436 111.209 41.0972 112.002 41.0911C112.802 41.0981 113.596 40.9445 114.336 40.6396C115.044 40.3486 115.684 39.9141 116.216 39.3634C116.76 38.7858 117.185 38.1072 117.469 37.366C117.788 36.5371 117.945 35.6547 117.933 34.7665C117.945 33.8886 117.787 33.0166 117.469 32.1984C117.186 31.4606 116.76 30.7861 116.216 30.2136C115.682 29.6649 115.043 29.2307 114.336 28.9373C113.599 28.6347 112.808 28.4813 112.011 28.4858C111.218 28.4797 110.432 28.6333 109.699 28.9373C108.993 29.2307 108.353 29.6649 107.82 30.2136C107.275 30.7861 106.849 31.4606 106.566 32.1984C106.232 33.0134 106.059 33.8855 106.056 34.7665Z" fill="#6F2595"/>
<path d="M151.015 33.9513V46.2054H144.167V34.105C144.188 33.205 144.076 32.3068 143.835 31.4397C143.661 30.8005 143.345 30.2089 142.911 29.7088C142.525 29.28 142.036 28.9564 141.491 28.7681C140.906 28.5718 140.292 28.4754 139.674 28.4828C138.893 28.4704 138.118 28.6321 137.406 28.9562C136.745 29.2598 136.156 29.7001 135.677 30.2481C135.185 30.8273 134.815 31.4989 134.587 32.2236C134.331 33.0283 134.205 33.8688 134.214 34.7133V46.196H127.409V23.3497H132.892L133.308 25.09C134.344 24.3537 135.479 23.7678 136.679 23.3497C137.319 23.1268 137.973 22.9498 138.637 22.8198C139.305 22.689 139.984 22.6228 140.664 22.6222C142.266 22.5828 143.861 22.8478 145.364 23.403C146.603 23.8788 147.708 24.6506 148.581 25.6513C149.45 26.6892 150.081 27.9051 150.429 29.2134C150.843 30.7579 151.04 32.3525 151.015 33.9513Z" fill="#6F2595"/>
<path d="M168.797 23.3496H176.106L166.529 46.2053H160.429L150.871 23.3496H158.161L163.446 37.0806H163.49L168.797 23.3496Z" fill="#6F2595"/>
<path d="M175.302 34.7885C175.292 33.1723 175.584 31.5685 176.164 30.06C176.714 28.6152 177.544 27.2938 178.607 26.1718C179.694 25.0313 181.007 24.13 182.461 23.5253C184.073 22.8599 185.804 22.5302 187.548 22.5564C188.268 22.5538 188.987 22.6199 189.694 22.7539C190.352 22.8789 190.997 23.0636 191.621 23.3058C192.199 23.529 192.758 23.7975 193.294 24.1085C193.781 24.3909 194.246 24.7117 194.682 25.068L194.983 23.3497H200.772V46.2054H194.983L194.669 44.487C193.736 45.2245 192.701 45.8224 191.596 46.2618C190.311 46.7702 188.939 47.0206 187.558 46.9987C185.821 47.0237 184.097 46.694 182.492 46.0298C181.037 45.4297 179.719 44.5412 178.617 43.4178C177.544 42.3055 176.709 40.9856 176.164 39.539C175.583 38.0231 175.291 36.4119 175.302 34.7885ZM182.107 34.7666C182.096 35.6607 182.261 36.5482 182.592 37.3785C182.893 38.1298 183.338 38.8148 183.902 39.3948C184.455 39.9538 185.114 40.3963 185.841 40.6961C187.359 41.3106 189.057 41.3106 190.575 40.6961C191.302 40.3963 191.961 39.9538 192.514 39.3948C193.077 38.8166 193.518 38.1309 193.811 37.3785C194.136 36.5467 194.298 35.6598 194.287 34.7666C194.298 33.8837 194.133 33.0075 193.802 32.1891C193.499 31.4415 193.055 30.7599 192.492 30.1823C191.939 29.6232 191.28 29.1807 190.553 28.881C189.027 28.2664 187.323 28.2664 185.797 28.881C185.073 29.1785 184.417 29.6214 183.87 30.1823C183.313 30.7593 182.875 31.4414 182.583 32.1891C182.258 33.009 182.096 33.8846 182.107 34.7666Z" fill="#6F2595"/>
<path d="M207.912 19.1887L208.701 17.0439L213.592 17V23.3497H220.221V29.1914H213.592V37.2123C213.575 37.8069 213.661 38.3999 213.845 38.9652C213.983 39.3808 214.217 39.758 214.528 40.0658C214.815 40.3396 215.168 40.5341 215.553 40.6302C215.969 40.7359 216.398 40.7876 216.828 40.7838H220.637L220.594 46.359H216.167C214.951 46.3653 213.738 46.2508 212.545 46.0172C211.462 45.8149 210.441 45.3629 209.563 44.6971C208.659 43.9728 207.963 43.0218 207.545 41.9409C207.052 40.7577 206.807 39.2035 206.809 37.2782V29.1914H203.175V23.9768C204.26 23.5627 205.244 22.9213 206.061 22.0955C206.878 21.2697 207.509 20.2786 207.912 19.1887Z" fill="#6F2595"/>
<path d="M236.816 37.6325H228.933C229.406 38.7043 230.188 39.6098 231.18 40.2319C232.166 40.8587 233.313 41.1855 234.482 41.1726C235.093 41.1796 235.704 41.1356 236.308 41.0409C236.775 40.9671 237.232 40.8453 237.674 40.6772C238.05 40.535 238.408 40.351 238.742 40.1285C239.06 39.9194 239.379 39.6874 239.701 39.4324L243.401 43.4899C242.936 43.922 242.439 44.3172 241.913 44.672C241.274 45.1087 240.597 45.4855 239.889 45.7977C239.075 46.152 238.231 46.4322 237.367 46.6349C236.392 46.86 235.394 46.9705 234.394 46.9642C232.65 46.9849 230.92 46.6554 229.306 45.9952C227.821 45.3871 226.47 44.4921 225.331 43.3613C223.64 41.6468 222.491 39.4721 222.027 37.1084C221.563 34.7448 221.804 32.2966 222.721 30.0693C223.323 28.6168 224.206 27.2984 225.321 26.1905C226.465 25.0612 227.819 24.1665 229.306 23.5566C230.928 22.8953 232.665 22.5658 234.416 22.5877C235.912 22.5719 237.403 22.7726 238.843 23.1835C240.053 23.521 241.191 24.0779 242.201 24.8265C243.098 25.499 243.833 26.3649 244.35 27.3601C244.861 28.3704 245.121 29.489 245.108 30.6212C245.113 31.5328 244.98 32.4397 244.714 33.3116C244.452 34.158 243.986 34.9268 243.357 35.5504C242.63 36.2415 241.757 36.7611 240.804 37.0712C239.515 37.479 238.167 37.6687 236.816 37.6325ZM234.591 28.2256C233.36 28.2184 232.156 28.5918 231.145 29.2948C230.642 29.6424 230.19 30.0582 229.801 30.5303C229.401 31.0112 229.075 31.5491 228.833 32.1263H235.725C236.455 32.1615 237.18 32.0024 237.828 31.6654C238.006 31.5798 238.164 31.4564 238.291 31.3038C238.418 31.1512 238.51 30.973 238.561 30.7814C238.612 30.5898 238.621 30.3894 238.588 30.194C238.554 29.9985 238.479 29.8126 238.366 29.6492C238.173 29.3604 237.917 29.1192 237.618 28.9436C237.229 28.7086 236.806 28.5342 236.365 28.4263C235.785 28.2806 235.189 28.2111 234.591 28.2193V28.2256Z" fill="#6F2595"/>
<path d="M263.905 39.3415L268 43.6624C266.857 44.7396 265.509 45.5756 264.037 46.1208C262.49 46.6855 260.852 46.9608 259.206 46.9329C257.448 46.9383 255.706 46.6051 254.074 45.9514C252.577 45.3512 251.212 44.4639 250.055 43.3395C248.935 42.2423 248.047 40.9306 247.445 39.4826C246.211 36.4686 246.211 33.0897 247.445 30.0757C248.046 28.6226 248.93 27.304 250.045 26.1969C251.195 25.0638 252.557 24.1688 254.052 23.563C255.689 22.9038 257.441 22.5766 259.206 22.6003C260.831 22.5875 262.445 22.8636 263.974 23.4156C264.165 23.4877 264.356 23.563 264.544 23.6414C264.98 23.8296 265.364 24.1207 265.664 24.4898C265.963 24.8589 266.168 25.2951 266.262 25.7609C266.357 26.2268 266.337 26.7086 266.204 27.1651C266.072 27.6216 265.831 28.0393 265.503 28.3824C265.079 28.8187 264.533 29.115 263.937 29.2316C263.34 29.3482 262.723 29.2795 262.166 29.0347L261.853 28.9155C261.015 28.6195 260.132 28.4741 259.243 28.4859C258.467 28.4817 257.697 28.6275 256.975 28.9155C256.272 29.1959 255.633 29.615 255.095 30.1478C254.536 30.7105 254.098 31.3817 253.808 32.1201C253.48 32.9633 253.32 33.8621 253.335 34.7666C253.319 35.6671 253.48 36.5619 253.808 37.4006C254.102 38.1372 254.539 38.8078 255.095 39.3729C255.63 39.9151 256.27 40.342 256.975 40.6271C257.697 40.9151 258.467 41.061 259.243 41.0567C261.265 41.0504 262.819 40.4787 263.905 39.3415Z" fill="#6F2595"/>
<path d="M55.5302 19.7355L55.3881 19.4249C53.2998 14.6098 50.3124 11.814 47.3128 11.814C42.6789 11.814 40.2754 13.8611 40.2754 22.87C40.2754 28.0237 42.5584 33.7893 44.727 38.9958C46.6887 43.7052 48.5577 47.958 48.5577 50.8843C48.5577 54.0157 47.98 55.0967 46.7042 56.4543C48.0282 55.3827 49.2525 54.1922 50.3619 52.8974C54.1638 48.5733 56.6608 43.2487 57.5599 37.5482C58.6102 31.5682 57.7236 24.6345 55.5302 19.7355Z" fill="white"/>
<path d="M31.5048 36.666C39.1569 36.666 45.3602 30.4282 45.3602 22.7334C45.3602 15.0386 39.1569 8.80078 31.5048 8.80078C23.8527 8.80078 17.6494 15.0386 17.6494 22.7334C17.6494 30.4282 23.8527 36.666 31.5048 36.666Z" fill="white"/>
<path d="M26.7837 0H26.691C26.5026 0 26.2338 0 25.9033 0C22.4765 0.0381362 19.0878 0.727459 15.9156 2.03165L15.684 2.12795H15.6592C9.0729 4.96728 5.46463 10.152 3.52766 14.7124C2.63308 16.7226 1.98972 18.8367 1.6123 21.0061C2.61632 16.3464 8.56008 14.8335 15.0692 13.7773C23.9045 12.3452 33.7871 11.7767 33.7871 5.42083C33.7871 3.89555 33.2526 0 26.7837 0Z" fill="white"/>
<path d="M15.0696 13.7929C14.7055 12.7584 14.5206 11.6688 14.5228 10.5715C14.5228 2.00065 21.6807 0.385273 25.1499 0.0932624C25.7184 0.0435585 26.2806 0.00938682 26.6081 0.00317383H26.6946C26.5061 0.00317383 26.2374 0.00317383 25.9068 0.00317383C22.48 0.04131 19.0913 0.730633 15.9192 2.03482L15.6875 2.13112H15.6628C9.07646 4.97046 5.46819 10.1552 3.53122 14.7155C2.63664 16.7258 1.99328 18.8399 1.61586 21.0093C1.44631 21.8434 1.33482 22.6883 1.28223 23.538C1.28223 37.9428 10.7848 47.6816 19.1629 47.6816C28.5852 47.6816 32.5364 39.0487 32.5364 35.5819C32.5333 25.057 18.0848 22.3451 15.0696 13.7929Z" fill="white"/>
<path d="M55.5297 19.7356C55.7731 21.1006 55.8766 22.4872 55.8386 23.8734C55.8386 26.3431 53.1726 34.5722 44.8748 38.9182L44.6802 39.0207C41.56 40.6143 37.6582 41.6612 32.8174 41.6612C21.4643 41.6612 17.1331 36.5107 10.5746 36.5107C5.5885 36.5107 0 39.7601 0 45.125C0 54.1649 9.8208 64.0062 27.2165 64C33.117 64 40.5869 61.5148 46.6789 56.4513C48.003 55.3797 49.2273 54.1891 50.3366 52.8943C54.1386 48.5702 56.6355 43.2457 57.5346 37.5451C58.6097 31.5682 57.7231 24.6345 55.5297 19.7356Z" fill="white"/>
<path d="M31.5048 36.666C39.1569 36.666 45.3602 30.4282 45.3602 22.7334C45.3602 15.0386 39.1569 8.80078 31.5048 8.80078C23.8527 8.80078 17.6494 15.0386 17.6494 22.7334C17.6494 30.4282 23.8527 36.666 31.5048 36.666Z" fill="url(#paint0_radial_3_1281)"/>
<path opacity="0.91" d="M26.7837 0H26.691C26.5026 0 26.2338 0 25.9033 0C22.4765 0.0381362 19.0878 0.727459 15.9156 2.03165L15.684 2.12795H15.6592C9.0729 4.96728 5.46463 10.152 3.52766 14.7124C2.63308 16.7226 1.98972 18.8367 1.6123 21.0061C2.61632 16.3464 8.56008 14.8335 15.0692 13.7773C23.9045 12.3452 33.7871 11.7767 33.7871 5.42083C33.7871 3.89555 33.2526 0 26.7837 0Z" fill="url(#paint1_linear_3_1281)"/>
<path opacity="0.98" d="M15.0696 13.7929C14.7055 12.7584 14.5206 11.6688 14.5228 10.5715C14.5228 2.00065 21.6807 0.385273 25.1499 0.0932624C25.7184 0.0435585 26.2806 0.00938682 26.6081 0.00317383H26.6946C26.5061 0.00317383 26.2374 0.00317383 25.9068 0.00317383C22.48 0.04131 19.0913 0.730633 15.9192 2.03482L15.6875 2.13112H15.6628C9.07646 4.97046 5.46819 10.1552 3.53122 14.7155C2.63664 16.7258 1.99328 18.8399 1.61586 21.0093C1.44631 21.8434 1.33482 22.6883 1.28223 23.538C1.28223 37.9428 10.7848 47.6816 19.1629 47.6816C28.5852 47.6816 32.5364 39.0487 32.5364 35.5819C32.5333 25.057 18.0848 22.3451 15.0696 13.7929Z" fill="url(#paint2_linear_3_1281)"/>
<path opacity="0.9" d="M55.5302 19.7355L55.3881 19.4249C53.2998 14.6098 50.3124 11.814 47.3128 11.814C42.6789 11.814 40.2754 13.8611 40.2754 22.87C40.2754 28.0237 42.5584 33.7893 44.727 38.9958C46.6887 43.7052 48.5577 47.958 48.5577 50.8843C48.5577 54.0157 47.98 55.0967 46.7042 56.4543C48.0282 55.3827 49.2525 54.1922 50.3619 52.8974C54.1638 48.5733 56.6608 43.2487 57.5599 37.5482C58.6102 31.5682 57.7236 24.6345 55.5302 19.7355Z" fill="url(#paint3_linear_3_1281)"/>
<path opacity="0.97" d="M55.5297 19.7356C55.7731 21.1006 55.8766 22.4872 55.8386 23.8734C55.8386 26.3431 53.1726 34.5722 44.8748 38.9182L44.6802 39.0207C41.56 40.6143 37.6582 41.6612 32.8174 41.6612C21.4643 41.6612 17.1331 36.5107 10.5746 36.5107C5.5885 36.5107 0 39.7601 0 45.125C0 54.1649 9.8208 64.0062 27.2165 64C33.117 64 40.5869 61.5148 46.6789 56.4513C48.003 55.3797 49.2273 54.1891 50.3366 52.8943C54.1386 48.5702 56.6355 43.2457 57.5346 37.5451C58.6097 31.5682 57.7231 24.6345 55.5297 19.7356Z" fill="url(#paint4_linear_3_1281)"/>
<path d="M125.925 63.9363V58.5607H124.633V57.6275H125.925V57.3108C125.925 57.0278 125.957 56.7457 126.02 56.4699C126.08 56.203 126.193 55.9506 126.351 55.7272C126.517 55.5033 126.735 55.3233 126.987 55.2031C127.301 55.0584 127.645 54.9893 127.99 55.0013H128.907V55.8982H128.22C128.022 55.8918 127.825 55.9291 127.643 56.0075C127.494 56.0767 127.364 56.1828 127.267 56.3158C127.169 56.4536 127.099 56.61 127.063 56.7754C127.021 56.9641 127.001 57.1568 127.001 57.35V57.6303H128.876V58.5636H127.001V63.9391L125.925 63.9363Z" fill="#AA0061"/>
<path d="M130.538 60.7776C130.535 60.33 130.624 59.8865 130.798 59.4744C130.965 59.0767 131.21 58.7164 131.519 58.415C131.832 58.1075 132.204 57.8655 132.612 57.7031C133.49 57.3555 134.467 57.3555 135.344 57.7031C135.749 57.8639 136.118 58.1032 136.43 58.4072C136.741 58.7112 136.99 59.0739 137.161 59.4744C137.422 60.0894 137.492 60.769 137.36 61.4242C137.228 62.0793 136.902 62.6795 136.423 63.1459C136.107 63.4504 135.735 63.692 135.328 63.8578C134.891 64.0324 134.425 64.12 133.954 64.1156C133.489 64.1192 133.027 64.0316 132.595 63.8578C132.189 63.6938 131.818 63.452 131.505 63.1459C131.198 62.8421 130.953 62.4813 130.784 62.0837C130.612 61.6702 130.528 61.2254 130.538 60.7776ZM131.614 60.7776C131.609 61.0948 131.668 61.4098 131.787 61.7039C131.906 61.9981 132.082 62.2654 132.306 62.4901C132.523 62.7055 132.78 62.876 133.063 62.9917C133.355 63.1127 133.669 63.1737 133.985 63.1711C134.303 63.1736 134.619 63.1127 134.913 62.9917C135.196 62.8763 135.453 62.7058 135.669 62.4903C135.886 62.2748 136.057 62.0185 136.174 61.7362C136.299 61.4322 136.362 61.1063 136.359 60.7776C136.362 60.4508 136.299 60.1267 136.174 59.8247C136.056 59.5396 135.882 59.2805 135.664 59.0624C135.447 58.8485 135.191 58.6782 134.91 58.5607C134.314 58.325 133.651 58.325 133.055 58.5607C132.774 58.6769 132.518 58.8473 132.304 59.0624C132.089 59.2817 131.918 59.5394 131.799 59.8219C131.669 60.1238 131.602 60.449 131.603 60.7776H131.614Z" fill="#AA0061"/>
<path d="M143.691 57.6274V58.5803H142.999C142.7 58.5767 142.402 58.625 142.119 58.7232C141.863 58.8115 141.63 58.9572 141.438 59.1492C141.244 59.3497 141.094 59.5883 140.998 59.8499C140.888 60.1632 140.835 60.4934 140.841 60.8253V63.9362H139.771V57.6274H140.656L140.765 58.6055C141.004 58.3102 141.304 58.071 141.646 57.9049C142.053 57.7099 142.5 57.6139 142.952 57.6246L143.691 57.6274Z" fill="#AA0061"/>
<path d="M149.333 61.2512H146.284C146.331 61.5271 146.425 61.7927 146.564 62.036C146.701 62.2675 146.876 62.4741 147.082 62.647C147.291 62.8188 147.527 62.9551 147.78 63.0505C148.042 63.1476 148.319 63.1969 148.599 63.1963C148.976 63.2068 149.35 63.1321 149.694 62.9777C149.991 62.8386 150.261 62.6489 150.493 62.4171L151.104 63.0561C150.964 63.2066 150.81 63.3436 150.645 63.4653C150.462 63.601 150.266 63.7166 150.059 63.8101C149.836 63.9111 149.604 63.9899 149.366 64.0455C149.109 64.1036 148.846 64.1327 148.582 64.1324C148.121 64.1361 147.664 64.0464 147.239 63.8689C146.838 63.7013 146.474 63.4577 146.166 63.1514C145.86 62.8477 145.617 62.4867 145.451 62.0892C145.276 61.681 145.188 61.2412 145.19 60.7972C145.19 60.359 145.275 59.9249 145.443 59.5199C145.61 59.115 145.856 58.747 146.166 58.4373C146.474 58.1299 146.84 57.8861 147.242 57.7198C147.668 57.5415 148.126 57.4519 148.587 57.4564C149.001 57.4495 149.413 57.5062 149.809 57.6245C150.129 57.7188 150.43 57.8708 150.695 58.073C150.922 58.2464 151.109 58.4673 151.241 58.7204C151.363 58.9592 151.426 59.2232 151.426 59.4911C151.428 59.7249 151.389 59.9572 151.312 60.1778C151.236 60.3916 151.11 60.5839 150.944 60.7383C150.756 60.9099 150.533 61.0398 150.291 61.1195C149.981 61.2155 149.657 61.26 149.333 61.2512ZM146.272 60.3684H149.229C149.55 60.3796 149.864 60.2807 150.12 60.0881C150.212 60.0081 150.285 59.9088 150.333 59.7973C150.381 59.6858 150.405 59.565 150.401 59.4435C150.399 59.3066 150.363 59.1724 150.294 59.0539C150.212 58.912 150.099 58.7904 149.963 58.698C149.792 58.5826 149.603 58.4964 149.403 58.4429C149.148 58.3712 148.883 58.3372 148.618 58.342C148.331 58.3398 148.046 58.3911 147.777 58.4934C147.518 58.5911 147.278 58.7334 147.068 58.9138C146.858 59.0959 146.68 59.3118 146.541 59.5528C146.403 59.806 146.312 60.0824 146.272 60.3684Z" fill="#AA0061"/>
<path d="M158.108 57.6274H159.26L156.544 63.9363H155.555L152.839 57.6274H153.982L156.048 62.5321L158.108 57.6274Z" fill="#AA0061"/>
<path d="M164.515 61.2512H161.466C161.513 61.5272 161.608 61.7927 161.746 62.036C161.882 62.2682 162.058 62.475 162.265 62.647C162.473 62.8188 162.708 62.9551 162.96 63.0506C163.223 63.1476 163.501 63.197 163.781 63.1963C164.158 63.2069 164.533 63.1321 164.877 62.9777C165.173 62.8393 165.443 62.6495 165.673 62.4172L166.287 63.0562C166.146 63.2073 165.991 63.3444 165.824 63.4654C165.643 63.601 165.448 63.7166 165.241 63.8101C165.019 63.9107 164.787 63.9895 164.549 64.0455C164.291 64.1036 164.026 64.1328 163.762 64.1324C163.301 64.1358 162.844 64.0462 162.419 63.8689C161.612 63.5337 160.97 62.8944 160.631 62.0892C160.459 61.6804 160.371 61.2409 160.373 60.7972C160.371 60.3517 160.459 59.9104 160.631 59.4996C160.799 59.103 161.042 58.7424 161.346 58.4373C161.654 58.13 162.02 57.8862 162.422 57.7199C162.848 57.5415 163.305 57.4519 163.767 57.4564C164.181 57.4493 164.593 57.5061 164.989 57.6246C165.31 57.7183 165.611 57.8703 165.878 58.073C166.104 58.2463 166.29 58.4673 166.421 58.7204C166.543 58.959 166.608 59.2231 166.609 59.4912C166.61 59.7249 166.572 59.9572 166.494 60.1778C166.417 60.3915 166.291 60.5837 166.124 60.7383C165.937 60.9099 165.715 61.0398 165.474 61.1195C165.164 61.2153 164.84 61.2597 164.515 61.2512ZM161.452 60.3684H164.412C164.731 60.379 165.045 60.2801 165.3 60.0881C165.392 60.0085 165.465 59.9092 165.514 59.7977C165.562 59.6861 165.585 59.5651 165.581 59.4435C165.578 59.3068 165.541 59.1729 165.474 59.0539C165.391 58.9119 165.277 58.7903 165.14 58.698C164.969 58.5828 164.78 58.4967 164.58 58.4429C164.324 58.3713 164.058 58.3373 163.792 58.342C163.505 58.3397 163.22 58.391 162.952 58.4934C162.692 58.5905 162.452 58.7328 162.242 58.9138C162.032 59.0951 161.853 59.3113 161.716 59.5528C161.579 59.8064 161.49 60.0828 161.452 60.3684Z" fill="#AA0061"/>
<path d="M172.858 57.6273V58.5803H172.166C171.867 58.5764 171.569 58.6248 171.286 58.7232C171.03 58.8114 170.797 58.9571 170.605 59.1492C170.411 59.3496 170.261 59.5882 170.165 59.8499C170.054 60.1628 170.001 60.4933 170.008 60.8252V63.9362H168.935V57.6273H169.817L169.93 58.6055C170.168 58.3101 170.468 58.0709 170.81 57.9048C171.216 57.7102 171.662 57.6142 172.113 57.6245L172.858 57.6273Z" fill="#AA0061"/>
<path d="M183.879 62.5462L184.549 63.2385C184.227 63.5295 183.852 63.7551 183.445 63.9027C183.056 64.0435 182.647 64.1156 182.234 64.1157C181.774 64.1187 181.317 64.035 180.889 63.8691C180.475 63.712 180.094 63.4781 179.767 63.1796C179.446 62.8824 179.187 62.5242 179.005 62.1258C178.815 61.704 178.72 61.2459 178.725 60.7833C178.722 60.3357 178.811 59.8922 178.985 59.4801C179.151 59.0818 179.396 58.7214 179.706 58.4207C180.018 58.1132 180.389 57.8712 180.796 57.7088C181.23 57.5324 181.695 57.4439 182.164 57.4481C182.584 57.4494 183 57.5204 183.397 57.6583C183.81 57.8058 184.191 58.0324 184.518 58.3254L183.857 59.0205C183.641 58.8145 183.385 58.6552 183.105 58.5524C182.803 58.4416 182.483 58.3865 182.161 58.3899C181.855 58.3886 181.552 58.4447 181.267 58.5552C180.982 58.6645 180.722 58.8299 180.502 59.0418C180.283 59.2537 180.108 59.5076 179.989 59.7884C179.727 60.425 179.727 61.1389 179.989 61.7755C180.109 62.0595 180.288 62.3153 180.513 62.5266C180.733 62.7327 180.991 62.8944 181.272 63.0031C181.555 63.1151 181.857 63.1721 182.161 63.1712C182.475 63.1875 182.788 63.1406 183.083 63.0332C183.379 62.9258 183.649 62.7602 183.879 62.5462Z" fill="#AA0061"/>
<path d="M192.444 63.9364H191.553L191.452 63.0479C191.283 63.2144 191.095 63.3602 190.891 63.4823C190.679 63.6133 190.455 63.7232 190.222 63.8103C189.986 63.9007 189.742 63.9683 189.493 64.0121C189.246 64.0564 188.995 64.0789 188.745 64.0793C188.456 64.0818 188.168 64.0431 187.89 63.9644C187.634 63.8951 187.396 63.774 187.189 63.6085C186.982 63.4415 186.819 63.2271 186.713 62.9835C186.587 62.6907 186.527 62.3741 186.536 62.0558C186.526 61.7547 186.617 61.4589 186.794 61.215C186.975 60.9829 187.211 60.7998 187.481 60.6825C187.794 60.5405 188.126 60.446 188.467 60.4022C188.848 60.3487 189.232 60.3225 189.616 60.3237H190.011L190.474 60.3377L190.942 60.3517C191.093 60.3517 191.222 60.3517 191.362 60.3517V59.5642C191.357 59.402 191.312 59.2435 191.233 59.1017C191.148 58.9458 191.028 58.8115 190.883 58.7094C190.707 58.5835 190.511 58.4887 190.303 58.4291C190.039 58.3575 189.766 58.3236 189.493 58.3282C189.267 58.3274 189.041 58.3575 188.823 58.4179C188.626 58.4706 188.437 58.5508 188.263 58.6561C188.112 58.7438 187.982 58.8611 187.879 59.0009C187.787 59.1179 187.737 59.2617 187.736 59.41H186.648C186.652 59.1194 186.735 58.8353 186.889 58.5889C187.046 58.34 187.254 58.1278 187.5 57.9667C187.774 57.7874 188.075 57.6539 188.391 57.5715C188.744 57.4768 189.108 57.4297 189.473 57.4313C189.913 57.4237 190.351 57.4804 190.774 57.5995C191.108 57.6912 191.423 57.8442 191.701 58.0507C191.937 58.2234 192.129 58.449 192.262 58.7094C192.382 58.9564 192.445 59.2277 192.444 59.5025V63.9364ZM189.115 63.2189C189.356 63.2189 189.598 63.1888 189.832 63.1292C190.066 63.0737 190.291 62.99 190.505 62.8798C190.709 62.7795 190.898 62.6502 191.065 62.4958C191.211 62.3613 191.324 62.1942 191.393 62.0081V61.1337C191.275 61.1337 191.149 61.1337 191.012 61.1337H190.586H190.157H189.779C189.53 61.1337 189.281 61.1478 189.033 61.1757C188.802 61.1969 188.574 61.2468 188.355 61.3243C188.168 61.3851 187.998 61.4887 187.859 61.627C187.795 61.694 187.745 61.7732 187.712 61.8599C187.68 61.9465 187.665 62.0389 187.668 62.1314C187.661 62.314 187.701 62.4954 187.783 62.6584C187.856 62.7982 187.962 62.9184 188.092 63.0087C188.232 63.1031 188.391 63.1688 188.557 63.2021C188.742 63.2258 188.929 63.2314 189.115 63.2189Z" fill="#AA0061"/>
<path d="M199.03 57.6274V58.5803H198.335C198.036 58.5769 197.738 58.6252 197.455 58.7232C197.199 58.8115 196.966 58.9572 196.774 59.1492C196.58 59.3497 196.43 59.5883 196.334 59.8499C196.224 60.1632 196.171 60.4934 196.177 60.8253V63.9362H195.106V57.6274H195.992L196.104 58.6055C196.341 58.3102 196.641 58.071 196.981 57.9049C197.389 57.7099 197.836 57.6139 198.287 57.6246L199.03 57.6274Z" fill="#AA0061"/>
<path d="M201.115 55.7469C201.114 55.6597 201.131 55.5731 201.165 55.4929C201.199 55.4127 201.25 55.3407 201.314 55.2817C201.385 55.2169 201.467 55.1667 201.557 55.134C201.647 55.1013 201.743 55.0867 201.838 55.0911C202.033 55.0826 202.223 55.1511 202.368 55.2817C202.433 55.3406 202.484 55.4125 202.519 55.4927C202.554 55.5729 202.571 55.6595 202.57 55.7469C202.571 55.8352 202.554 55.9227 202.519 56.0039C202.484 56.085 202.433 56.1579 202.368 56.2178C202.222 56.3492 202.029 56.4177 201.833 56.4083C201.739 56.412 201.644 56.3971 201.556 56.3644C201.468 56.3317 201.386 56.2819 201.317 56.2178C201.252 56.1579 201.201 56.085 201.166 56.0039C201.131 55.9227 201.114 55.8352 201.115 55.7469ZM201.295 63.9364V57.6275H202.371V63.9364H201.295Z" fill="#AA0061"/>
<path d="M211.196 60.5169V63.9362H210.134V60.5338C210.141 60.2047 210.096 59.8767 210.002 59.5612C209.931 59.3132 209.803 59.085 209.63 58.8942C209.463 58.7199 209.256 58.5891 209.027 58.513C208.763 58.4263 208.486 58.3846 208.209 58.3897C207.928 58.3874 207.65 58.4417 207.39 58.5495C207.14 58.653 206.914 58.8065 206.726 59.0007C206.532 59.1999 206.38 59.4363 206.28 59.6958C206.169 59.9824 206.114 60.2879 206.118 60.5954V63.9362H205.033V57.6274H205.93L206.023 58.4878C206.158 58.3374 206.307 58.2003 206.468 58.0786C206.643 57.9485 206.831 57.8376 207.029 57.7479C207.233 57.6538 207.446 57.5805 207.665 57.5293C207.891 57.4754 208.122 57.4481 208.354 57.448C209.319 57.448 210.036 57.7068 210.507 58.2243C210.975 58.7428 211.196 59.5052 211.196 60.5169Z" fill="#AA0061"/>
<path d="M219.538 57.3361H220.244V58.1096H219.748C219.596 58.1101 219.445 58.1406 219.305 58.1993C219.173 58.2545 219.046 58.3221 218.927 58.4011C219.076 58.596 219.195 58.8124 219.28 59.0429C219.362 59.2761 219.403 59.5216 219.403 59.7688C219.403 60.0992 219.331 60.4255 219.19 60.7245C219.046 61.023 218.841 61.2876 218.587 61.5008C218.313 61.7295 217.998 61.9054 217.66 62.0193C217.275 62.1524 216.87 62.2178 216.463 62.2127C216.15 62.2143 215.839 62.1766 215.535 62.1006C215.263 62.031 215.001 61.9264 214.756 61.7895C214.666 61.8988 214.596 62.0231 214.549 62.1567C214.508 62.272 214.486 62.3932 214.484 62.5154C214.477 62.6364 214.514 62.756 214.588 62.8517C214.659 62.9327 214.75 62.9944 214.851 63.0311C214.96 63.0719 215.075 63.0955 215.191 63.1012C215.308 63.1012 215.415 63.1012 215.51 63.1012H217.192C217.847 63.0621 218.5 63.2129 219.072 63.5356C219.282 63.667 219.453 63.8517 219.568 64.0708C219.684 64.2898 219.739 64.5355 219.728 64.7828C219.731 65.0974 219.65 65.407 219.493 65.6797C219.326 65.9625 219.097 66.2033 218.823 66.3831C218.505 66.59 218.156 66.7434 217.789 66.8372C217.351 66.9504 216.901 67.0051 216.449 66.9997C216.017 67.0018 215.585 66.9652 215.16 66.8904C214.793 66.8265 214.437 66.7074 214.106 66.5373C213.822 66.3918 213.577 66.1792 213.394 65.9179C213.215 65.6494 213.124 65.3322 213.133 65.0098C213.133 64.8771 213.156 64.7453 213.201 64.6202C213.248 64.4905 213.309 64.3657 213.38 64.2475C213.455 64.1271 213.541 64.0145 213.638 63.9112C213.732 63.8114 213.832 63.7178 213.938 63.6309C213.779 63.5302 213.649 63.3899 213.561 63.2237C213.473 63.0576 213.43 62.8715 213.436 62.6836C213.438 62.4184 213.504 62.1577 213.629 61.9241C213.751 61.6842 213.908 61.4647 214.098 61.2738C213.916 61.0685 213.771 60.8333 213.669 60.5788C213.559 60.296 213.508 59.994 213.519 59.691C213.53 59.388 213.601 59.0903 213.73 58.8159C213.873 58.5166 214.076 58.2503 214.327 58.0339C214.599 57.7998 214.913 57.62 215.252 57.5042C215.637 57.3704 216.042 57.304 216.449 57.308C216.79 57.3058 217.13 57.352 217.458 57.4454C217.756 57.5286 218.039 57.6562 218.299 57.8237C218.368 57.7632 218.441 57.707 218.517 57.6556C218.606 57.5957 218.7 57.5432 218.798 57.4986C218.907 57.4489 219.02 57.4095 219.137 57.3809C219.268 57.3493 219.403 57.3343 219.538 57.3361ZM217.04 63.9196H215.078C214.922 63.9196 214.765 63.9074 214.61 63.8831C214.465 64.0098 214.34 64.1571 214.238 64.3204C214.13 64.4954 214.074 64.6977 214.078 64.9033C214.069 65.1207 214.135 65.3344 214.266 65.5087C214.402 65.6769 214.579 65.8088 214.779 65.8927C215.018 65.9943 215.271 66.0622 215.53 66.0945C215.832 66.1348 216.136 66.1544 216.441 66.1533C216.746 66.1556 217.051 66.1208 217.349 66.0496C217.595 65.9921 217.831 65.8976 218.049 65.7693C218.228 65.6649 218.381 65.5223 218.498 65.3517C218.599 65.1996 218.653 65.0214 218.655 64.8388C218.666 64.6549 218.609 64.4732 218.495 64.3288C218.385 64.2032 218.245 64.1069 218.089 64.0485C217.918 63.986 217.74 63.9474 217.559 63.9336C217.377 63.9252 217.2 63.9196 217.04 63.9196ZM214.571 59.7604C214.569 59.9873 214.619 60.2117 214.717 60.4162C214.812 60.6171 214.948 60.7963 215.115 60.9431C215.292 61.0958 215.495 61.2145 215.715 61.2935C216.2 61.4615 216.728 61.4615 217.214 61.2935C217.434 61.2145 217.637 61.0958 217.814 60.9431C217.981 60.7963 218.116 60.6171 218.212 60.4162C218.31 60.2117 218.36 59.9873 218.358 59.7604C218.36 59.5371 218.31 59.3164 218.212 59.1158C218.116 58.9162 217.98 58.738 217.814 58.5917C217.637 58.4399 217.434 58.3221 217.214 58.2441C216.729 58.072 216.2 58.072 215.715 58.2441C215.495 58.3221 215.292 58.4399 215.115 58.5917C214.949 58.738 214.813 58.9162 214.717 59.1158C214.619 59.3164 214.569 59.5371 214.571 59.7604Z" fill="#AA0061"/>
<path d="M119.204 60.3909H110V61.2317H119.204V60.3909Z" fill="#AA0061"/>
<path d="M235.261 60.3909H226.057V61.2317H235.261V60.3909Z" fill="#AA0061"/>
<defs>
<radialGradient id="paint0_radial_3_1281" cx="0" cy="0" r="1" gradientUnits="userSpaceOnUse" gradientTransform="translate(35.283 15.0262) scale(13.738 13.8146)">
<stop stop-color="#9F1193" stop-opacity="0.3"/>
<stop offset="0.22" stop-color="#A20E88" stop-opacity="0.44"/>
<stop offset="0.67" stop-color="#A8056D" stop-opacity="0.81"/>
<stop offset="0.9" stop-color="#AC005F"/>
</radialGradient>
<linearGradient id="paint1_linear_3_1281" x1="6.02996" y1="0.335502" x2="39.5989" y2="33.8388" gradientUnits="userSpaceOnUse">
<stop stop-color="#9F1193"/>
<stop offset="0.27" stop-color="#9F1193" stop-opacity="0.77"/>
<stop offset="0.76" stop-color="#9F1193" stop-opacity="0.36"/>
<stop offset="1" stop-color="#9F1193" stop-opacity="0.2"/>
</linearGradient>
<linearGradient id="paint2_linear_3_1281" x1="-4.13018" y1="-0.602593" x2="69.8637" y2="73.2437" gradientUnits="userSpaceOnUse">
<stop stop-color="#6F2595"/>
<stop offset="0.37" stop-color="#871680" stop-opacity="0.6"/>
<stop offset="0.8" stop-color="#A20668" stop-opacity="0.17"/>
<stop offset="1" stop-color="#AC005F" stop-opacity="0"/>
</linearGradient>
<linearGradient id="paint3_linear_3_1281" x1="25.8114" y1="13.1808" x2="93.2516" y2="75.8158" gradientUnits="userSpaceOnUse">
<stop stop-color="#AC005F"/>
<stop offset="0.44" stop-color="#AC005F" stop-opacity="0.53"/>
<stop offset="0.82" stop-color="#AC005F" stop-opacity="0.15"/>
<stop offset="1" stop-color="#AC005F" stop-opacity="0"/>
</linearGradient>
<linearGradient id="paint4_linear_3_1281" x1="4.00061" y1="13.2679" x2="95.2924" y2="98.0566" gradientUnits="userSpaceOnUse">
<stop offset="0.18" stop-color="#AC005F"/>
<stop offset="0.54" stop-color="#D33583" stop-opacity="0.53"/>
<stop offset="0.85" stop-color="#F35FA1" stop-opacity="0.15"/>
<stop offset="1" stop-color="#FF70AC" stop-opacity="0"/>
</linearGradient>
</defs>
</svg>
