<svg id="a247478f-8b67-4ef2-9cbc-5d27a799713b" data-name="Ebene 1" xmlns="http://www.w3.org/2000/svg" viewBox="0 0 120 28"><defs><style>.e9c77017-4cbe-4d95-a6e3-cdae5a7d0da6{fill:#e30613;}.a532a363-93cf-49ba-93b7-2b82547c0266{fill:#50535a;}</style></defs><title>fhlogo</title><path class="e9c77017-4cbe-4d95-a6e3-cdae5a7d0da6" d="M32.08,7.08c.34,0,.34.15.31.4l-.22,1.23c0,.21-.11.38-.46.38H27.79c-1.11,0-1.58.39-1.81,1.66l-.36,2.07h5.21c.36,0,.36.18.33.39l-.25,1.38a.41.41,0,0,1-.47.39H25.23l-1,5.88a.49.49,0,0,1-.46.39H21.87a.3.3,0,0,1-.31-.31v-.08l1.77-10.11c.58-3.27,2.27-3.94,5.13-3.94a18.72,18.72,0,0,1,3.62.27"/><path class="e9c77017-4cbe-4d95-a6e3-cdae5a7d0da6" d="M36.63,6.61c.24,0,.37.1.31.39L34.5,20.84c0,.21-.12.41-.44.41H32.27c-.23,0-.35-.14-.31-.41L34.4,7a.43.43,0,0,1,.45-.39Z"/><path class="e9c77017-4cbe-4d95-a6e3-cdae5a7d0da6" d="M46.34,15.3l-.15.93c-.06.3-.19.48-.46.48H39.46a5.33,5.33,0,0,0-.1.79c0,1,.54,1.73,2,1.73s2.73-.14,3.55-.22c.25,0,.41,0,.37.29L45,20.57c-.06.31-.12.44-.48.5a18.79,18.79,0,0,1-3.87.33,3.58,3.58,0,0,1-3.79-3.87,6,6,0,0,1,.1-1.15l.21-1.19c.64-3.6,2.54-4.92,5.48-4.92,2.56,0,3.77,1.69,3.77,3.94a6.9,6.9,0,0,1-.1,1.09m-4.05-2.84c-1.54,0-2.25,1-2.5,2.44h4.07a4.53,4.53,0,0,0,.08-.73,1.51,1.51,0,0,0-1.65-1.71"/><path class="e9c77017-4cbe-4d95-a6e3-cdae5a7d0da6" d="M57,14.57l-1.1,6.27a.43.43,0,0,1-.46.41H53.63c-.21,0-.37-.12-.31-.41l1.1-6.27a8.74,8.74,0,0,0,.13-1.15c0-.75-.32-1-1.19-1a5.63,5.63,0,0,0-2.48.69l-1.36,7.73a.42.42,0,0,1-.47.41H47.28c-.21,0-.36-.12-.3-.41l1.77-10c0-.22.17-.39.53-.39h1.54c.25,0,.43,0,.37.39l-.08.4a6.2,6.2,0,0,1,3.19-.92c2.1,0,2.79,1.25,2.79,2.88A8.06,8.06,0,0,1,57,14.57"/><path class="a532a363-93cf-49ba-93b7-2b82547c0266" d="M4.66,27.93,2.06,17.28l10.08-5.07-.41-1.7s2.62.36,2.38,1.75c-.16.88-.8,4.51-.8,4.51L6,20.27Z"/><path class="e9c77017-4cbe-4d95-a6e3-cdae5a7d0da6" d="M3.85,15.45s-2.41-.32-2.68-1.29C.84,13,0,9.41,0,9.41L17.7.07S17.63.33,17.19,3c-.31,1.8-.63,3.43-1.66,4-.58.35-.87.49-1.65.91-3.77,2-10.52,5.57-10.52,5.57Z"/><path class="a532a363-93cf-49ba-93b7-2b82547c0266" d="M76.14,7,73.69,20.85a.49.49,0,0,1-.17.28.44.44,0,0,1-.3.12h-2a.28.28,0,0,1-.31-.32v-.08l1-6H66.4l-1,6a.57.57,0,0,1-.18.28.44.44,0,0,1-.29.12h-2a.29.29,0,0,1-.32-.32v-.08L65.06,7a.59.59,0,0,1,.17-.27.45.45,0,0,1,.29-.1h2c.22,0,.33.1.33.31V7l-1,5.44h5.59L73.4,7a.52.52,0,0,1,.17-.27.42.42,0,0,1,.28-.1h2c.23,0,.34.1.34.31Z"/><path class="a532a363-93cf-49ba-93b7-2b82547c0266" d="M85.81,14a5.59,5.59,0,0,1,0,.57c0,.19,0,.37-.07.56l-.15.94c-.07.33-.23.5-.48.5H78.66c0,.14,0,.27-.07.4a2.41,2.41,0,0,0,0,.4A1.8,1.8,0,0,0,79,18.68a2.11,2.11,0,0,0,1.56.48c.72,0,1.41,0,2.05-.08l1.6-.14h.08a.45.45,0,0,1,.2,0,.18.18,0,0,1,.09.18v.08l-.24,1.31a.76.76,0,0,1-.12.36.56.56,0,0,1-.37.16l-.92.14a8.65,8.65,0,0,1-.89.11c-.3,0-.62.05-1,.06s-.73,0-1.18,0a4.92,4.92,0,0,1-1.34-.19,3.4,3.4,0,0,1-2.18-1.89A4.35,4.35,0,0,1,76,17.44c0-.18,0-.37,0-.57a4.44,4.44,0,0,1,.08-.61L76.34,15a8.35,8.35,0,0,1,.72-2.35,4.93,4.93,0,0,1,1.21-1.56,4.35,4.35,0,0,1,1.63-.87A7.32,7.32,0,0,1,82,10a4.51,4.51,0,0,1,1.72.31,3.27,3.27,0,0,1,1.2.85,3.62,3.62,0,0,1,.71,1.28A5.47,5.47,0,0,1,85.81,14Zm-2.56,0a1.82,1.82,0,0,0-.43-1.31,1.71,1.71,0,0,0-1.26-.44,2.21,2.21,0,0,0-1.78.71A3.81,3.81,0,0,0,79,14.74h4.17a2.58,2.58,0,0,0,.06-.37C83.24,14.25,83.25,14.13,83.25,14Z"/><path class="a532a363-93cf-49ba-93b7-2b82547c0266" d="M96.93,10.88a.63.63,0,0,1,0,.16l-1.72,9.81a.49.49,0,0,1-.17.28.48.48,0,0,1-.3.12H93.14c-.21,0-.31-.12-.31-.34v-.06l.08-.57a5.63,5.63,0,0,1-1.58.88,4.82,4.82,0,0,1-1.48.24,3.56,3.56,0,0,1-1.26-.22,2.85,2.85,0,0,1-1-.68,3.11,3.11,0,0,1-.69-1.12,4.25,4.25,0,0,1-.25-1.54c0-.19,0-.38,0-.58a4.07,4.07,0,0,1,.08-.61c0-.19.06-.39.1-.59s.06-.35.1-.55.07-.39.1-.57a6.34,6.34,0,0,1,1.81-3.64A5.31,5.31,0,0,1,92.61,10a14.94,14.94,0,0,1,2,.14,14.51,14.51,0,0,1,1.9.38,1.83,1.83,0,0,1,.34.12A.27.27,0,0,1,96.93,10.88Zm-3.64,1.28c-.35,0-.7,0-1.05,0a2.44,2.44,0,0,0-1.09.22,2.2,2.2,0,0,0-.76.59,3.3,3.3,0,0,0-.49.89,5.92,5.92,0,0,0-.28,1.12l-.36,2c0,.14,0,.29-.06.42s0,.27,0,.39a1.27,1.27,0,0,0,1.36,1.49,3.59,3.59,0,0,0,1.18-.21A8.24,8.24,0,0,0,93,18.45l1.08-6.19A7.13,7.13,0,0,0,93.29,12.16Z"/><path class="a532a363-93cf-49ba-93b7-2b82547c0266" d="M102.36,6.64l-2.5,14.19a.55.55,0,0,1-.17.29.41.41,0,0,1-.28.13H97.58a.3.3,0,0,1-.24-.1.41.41,0,0,1-.08-.24v-.08l2.5-14.19a.65.65,0,0,1,.17-.27.42.42,0,0,1,.29-.12h1.83a.28.28,0,0,1,.31.32Z"/><path class="a532a363-93cf-49ba-93b7-2b82547c0266" d="M110,10.53l-.2,1.16a.46.46,0,0,1-.17.27.48.48,0,0,1-.3.12h-1.77l-1.09,6.19a5,5,0,0,0-.1.69c0,.18,0,.3.15.34a1.28,1.28,0,0,0,.52.07h1.05a.86.86,0,0,1,.24,0c.08,0,.11.09.11.2v.06l-.21,1.24a.47.47,0,0,1-.44.36l-.7.09a4.68,4.68,0,0,1-.66,0,3.31,3.31,0,0,1-2-.49,1.92,1.92,0,0,1-.69-1.67,3.67,3.67,0,0,1,0-.46c0-.16,0-.33.07-.51L105,12.08l-1.81-.27a.31.31,0,0,1-.31-.34v-.06l.15-.88a.62.62,0,0,1,.17-.28.42.42,0,0,1,.29-.12h1.84l.29-1.61a.46.46,0,0,1,.17-.26.74.74,0,0,1,.28-.14l1.89-.31H108c.18,0,.28.08.28.23V8.1l-.38,2h1.77a.3.3,0,0,1,.34.34Z"/><path class="a532a363-93cf-49ba-93b7-2b82547c0266" d="M120,13.32a4.12,4.12,0,0,1-.08.81l-1.18,6.7a.64.64,0,0,1-.18.29.45.45,0,0,1-.29.13h-1.82a.29.29,0,0,1-.23-.1.35.35,0,0,1-.08-.24v-.08l1.18-6.7a2.71,2.71,0,0,0,.06-.38c0-.13,0-.24,0-.35a1.08,1.08,0,0,0-.4-1,2.37,2.37,0,0,0-1.35-.29c-.37,0-.72,0-1.06,0a4.68,4.68,0,0,0-.86.14l-1.49,8.49a.64.64,0,0,1-.18.29.45.45,0,0,1-.3.13H110a.33.33,0,0,1-.24-.1.4.4,0,0,1-.07-.24v-.08l2.5-14.19a.5.5,0,0,1,.17-.27.39.39,0,0,1,.28-.12h1.81a.3.3,0,0,1,.34.34v0l-.63,3.55c.3-.06.62-.11.94-.15s.66,0,1,0a5.31,5.31,0,0,1,1.74.26A3.34,3.34,0,0,1,119,11a2.83,2.83,0,0,1,.74,1.05A3.41,3.41,0,0,1,120,13.32Z"/></svg>