<?xml version="1.0" encoding="utf-8"?>
<!-- Generator: Adobe Illustrator 19.2.1, SVG Export Plug-In . SVG Version: 6.00 Build 0)  -->
<svg version="1.1" xmlns="http://www.w3.org/2000/svg" xmlns:xlink="http://www.w3.org/1999/xlink" x="0px" y="0px"
	 viewBox="0 0 715.9 138.3" style="enable-background:new 0 0 715.9 138.3;" xml:space="preserve">
<style type="text/css">
	.st0{fill:#009A3D;}
	.st1{fill:#E3000F;}
	.st2{fill:#009A3E;}
</style>
<g id="Ebene_1">
	<g>
		<path class="st0" d="M74.5,46.8c-3.6-8.6,7.4-23.4,10-26.2c3.6-3.8,4.8-4.6,8-6.5c2.5-1.4,6.4-3,9.6-1.7c2.5,1.4,2.6,5,2,8
			c-0.9,3.7-1.2,4.4-2.5,8.5c-1.7,5.3-2,7.3-0.4,9.1c2.5,2.4,11.2,3.8,18,4.9c7,1.2,7.8,1.3,11.8,2.2c3,0.7,5.5,1.2,5.5,4.8
			c0,3.5-4.2,4.1-7.6,4.6c-4.2,0.6-7.3,0.7-14.3,0.6C105.5,55,77.4,53.9,74.5,46.8"/>
		<path class="st1" d="M129,76.4c-1.2,0.2-2.4,0.3-3.7,0.3c-3.7,0.1-5.7-0.1-13.7-0.4c-0.5,0-1.1,0-1.7-0.1v52.1h23.9V73.9
			C132.8,75.3,130.7,76.1,129,76.4"/>
		<path class="st1" d="M7.8,24.3c1.6-0.5,3.9-0.4,5.7-0.5c3.1,0,5.1,0.2,12,0.5c2.1,0,4.2,0.1,6.2,0.1V6H7.8V24.3L7.8,24.3z"/>
		<path class="st1" d="M109.9,37.6c3.1,0.7,6.4,1.2,9.4,1.7c7,1.2,7.9,1.3,11.9,2.2c0.9,0.2,1.8,0.4,2.6,0.7V27.4h18.6
			c18.4,0,25.1,6.1,25.1,17.7c0,10.8-7.6,16.5-25.1,16.5H146V81l30.8,47.5h27.7l-30.9-47.6c19.7-5.6,28-21,28-38.1
			c0-28.4-22.6-36.7-42.7-36.7h-49C109.9,6,109.9,32,109.9,37.6"/>
		<path class="st1" d="M31.7,63.4c-2.7-0.4-5.9-0.8-9.3-1.2c-6.3-0.7-11.4-1.4-14.6-1.9v68.2h76.3v-21.9H31.7V63.4z"/>
		<path class="st0" d="M61.9,51.7c3.7,5.7,1.1,14.6-4.6,24.3c-2.3,3.9-4.5,6.6-7.2,9.4c-3.2,3-7.5,6-11.4,4.1
			c-2.6-1.7-1.2-6.8-0.2-10.6c0.6-2,1-3.3,1.6-5.5c1.2-5.3,2.4-9.5-0.9-11.7c-2.3-1.5-8.9-2.1-16.7-3.1c-6.7-0.8-12-1.5-15.2-2
			c-3.8-0.7-7-1.5-7.3-4.6c-0.4-4.1,5.5-4.9,8.4-5.5c4.7-0.8,8.1-0.9,13.1-1.2C38.4,45,57.8,45.2,61.9,51.7"/>
		<path class="st0" d="M75,57.9c6.6-2.8,29.4,0.7,39.4,2.6c7.2,1.5,7.7,1.9,12,3.3c3.1,1.3,6.5,3,5.9,6c-0.7,3-3.6,3.3-6.9,3.4
			c-3.7,0.1-5.6-0.1-13.7-0.4c-9.6-0.4-18.5-0.8-23.2,1.7c-3.8,2-5.1,4.8-7.3,9.8c-1.5,4.2-2.2,6.1-3.5,9.4c-0.7,1.8-2,5.6-5.6,6.3
			c-3.4,0.4-6.1-2.1-7.5-5.8c-1.4-3.4-2-6.2-2.1-12.4C62.6,72,66.6,61.3,75,57.9"/>
		<path class="st0" d="M10.2,36.7c-2.8-1.1-5.7-2.7-4.8-6.1c0.9-3.2,5.1-3.1,8.1-3.2c3.1,0,5.1,0.2,12,0.5
			c10.4,0.3,19.9,0.7,24.9-4.2c2.9-3.2,3.4-7.5,4.2-11.2c0.4-2.4,0.6-3.2,1.1-5.6c0.4-1.8,0.9-6.3,4.4-6.8c3.4-0.5,6.6,2,9.3,6.2
			c2,3.6,3,6,3.8,10.2c1.1,6.7,1.7,16.9-4.6,22c-7,5.4-31.8,4-46,1.3C14.5,38.3,12.6,37.5,10.2,36.7"/>
	</g>
</g>
<g id="Ebene_2">
	<g id="Ebene_2_1_">
		<g>
			<path class="st2" d="M244.4,91.9h16.3c6.6,0,10.9,3.8,10.9,10.5c0,6.6-4.3,10.5-10.9,10.5h-12.8v15.7h-3.5V91.9L244.4,91.9z
				 M247.9,109.9h12c4.9,0,8.2-2.5,8.2-7.5c0-5.1-3.3-7.5-8.2-7.5h-12V109.9z"/>
			<path class="st2" d="M279.1,116.2c0,4.7,2.5,10.5,8.7,10.5c4.7,0,7.3-2.7,8.3-6.8h3.3c-1.4,6-4.8,9.5-11.6,9.5
				c-8.5,0-12-6.5-12-14c0-7,3.5-14,12-14s11.9,7.5,11.6,14.9L279.1,116.2L279.1,116.2z M296.3,113.6c-0.2-4.9-3.3-9.5-8.5-9.5
				c-5.4,0-8.2,4.6-8.7,9.5H296.3z"/>
			<path class="st2" d="M328.6,115.4c0,7.6-4.5,14-12.6,14s-12.6-6.5-12.6-14c0-7.6,4.5-14,12.6-14S328.6,107.8,328.6,115.4z
				 M306.7,115.4c0,5.6,3.1,11.3,9.3,11.3c6.2,0,9.3-5.7,9.3-11.3c0-5.6-3.1-11.3-9.3-11.3C309.8,104.1,306.7,109.8,306.7,115.4z"/>
			<path class="st2" d="M334.4,102.1h3v5h0.1c1.5-3.6,5.1-5.8,9.5-5.8c8.1,0,11.9,6.5,11.9,14s-3.8,14-11.9,14
				c-3.9,0-7.8-1.9-9.2-5.8h-0.1v14.8h-3.3V102.1L334.4,102.1z M347,104.1c-7.2,0-9.3,5.3-9.3,11.3c0,5.5,2.5,11.3,9.3,11.3
				c6.2,0,8.6-5.8,8.6-11.3S353.2,104.1,347,104.1z"/>
			<path class="st2" d="M365,91.9h3.3v36.7H365V91.9z"/>
			<path class="st2" d="M377.4,116.2c0,4.7,2.5,10.5,8.7,10.5c4.7,0,7.3-2.7,8.3-6.8h3.3c-1.4,6-4.8,9.5-11.6,9.5
				c-8.5,0-12-6.5-12-14c0-7,3.5-14,12-14s11.9,7.5,11.6,14.9L377.4,116.2L377.4,116.2z M394.5,113.6c-0.2-4.9-3.3-9.5-8.5-9.5
				c-5.4,0-8.2,4.6-8.7,9.5H394.5z"/>
			<path class="st2" d="M405,128.7v-5.5h4.3v5.5H405z"/>
			<path class="st2" d="M419,91.9h3.5v15.9h21.8V91.9h3.5v36.7h-3.5v-17.7h-21.8v17.7H419V91.9z"/>
			<path class="st2" d="M457.5,116.2c0,4.7,2.5,10.5,8.7,10.5c4.7,0,7.3-2.7,8.3-6.8h3.3c-1.4,6-4.8,9.5-11.6,9.5
				c-8.5,0-12-6.5-12-14c0-7,3.5-14,12-14s11.9,7.5,11.6,14.9L457.5,116.2L457.5,116.2z M474.7,113.6c-0.2-4.9-3.3-9.5-8.5-9.5
				c-5.4,0-8.2,4.6-8.7,9.5H474.7z"/>
			<path class="st2" d="M482.9,110.2c0.4-6.2,4.6-8.9,10.7-8.9c4.6,0,9.7,1.4,9.7,8.6V124c0,1.3,0.6,1.9,1.9,1.9
				c0.4,0,0.6-0.1,1-0.2v2.7c-0.7,0.2-1.3,0.2-2.1,0.2c-3.3,0-3.8-1.9-3.8-4.6l0,0c-2.3,3.5-4.6,5.4-9.6,5.4c-4.9,0-8.9-2.5-8.9-7.7
				c0-7.4,7.3-7.7,14.2-8.6c2.6-0.3,4.2-0.7,4.2-3.6c0-4.4-3.1-5.5-6.9-5.5c-4.1,0-6.9,1.8-7.1,6.2L482.9,110.2L482.9,110.2z
				 M500.2,114.1L500.2,114.1c-0.5,0.7-1.9,1-2.8,1.2c-5.5,1-12.3,1-12.3,6.1c0,3.3,2.8,5.3,5.9,5.3c5,0,9.3-3.1,9.3-8.3
				L500.2,114.1L500.2,114.1z"/>
			<path class="st2" d="M511,91.9h3.3v36.7H511V91.9z"/>
			<path class="st2" d="M526.5,102.1h5.4v2.7h-5.4v17.8c0,2.1,0.3,3.4,2.6,3.5c0.9,0,1.8-0.1,2.7-0.2v2.7c-1,0-1.9,0.1-2.9,0.1
				c-4.3,0-5.8-1.5-5.7-5.9v-18h-4.6v-2.7h4.6v-8h3.3L526.5,102.1L526.5,102.1z"/>
			<path class="st2" d="M537.5,91.9h3.3v14.7h0.1c1.3-3.2,4.7-5.4,8.5-5.4c7.5,0,9.7,3.9,9.7,10.2v17h-3.3v-16.3c0-4.6-1.5-8-6.7-8
				s-8.2,3.9-8.3,9.1v15.5h-3.3V91.9z"/>
			<path class="st2" d="M568.1,128.7v-5.5h4.3v5.5H568.1z"/>
			<path class="st2" d="M609,103c-1.3-5.6-5.9-8.9-11.3-8.9c-9.7,0-13.8,8.1-13.8,16.1s4.1,16.1,13.8,16.1c6.8,0,11.1-5.3,11.7-11.7
				h3.5c-1,9-6.6,14.7-15.3,14.7c-11.6,0-17.3-9-17.3-19.1s5.7-19.1,17.3-19.1c7,0,13.7,4.2,14.7,11.8L609,103L609,103z"/>
			<path class="st2" d="M618.4,110.2c0.4-6.2,4.6-8.9,10.7-8.9c4.6,0,9.7,1.4,9.7,8.6V124c0,1.3,0.6,1.9,1.9,1.9
				c0.4,0,0.6-0.1,1-0.2v2.7c-0.7,0.2-1.3,0.2-2.1,0.2c-3.3,0-3.8-1.9-3.8-4.6h-0.1c-2.3,3.5-4.6,5.4-9.6,5.4
				c-4.9,0-8.9-2.5-8.9-7.7c0-7.4,7.3-7.7,14.2-8.6c2.6-0.3,4.2-0.7,4.2-3.6c0-4.4-3.1-5.5-6.9-5.5c-4.1,0-6.9,1.8-7.1,6.2
				L618.4,110.2L618.4,110.2z M635.6,114.1L635.6,114.1c-0.5,0.7-1.9,1-2.8,1.2c-5.5,1-12.3,1-12.3,6.1c0,3.3,2.8,5.3,5.9,5.3
				c5,0,9.3-3.1,9.3-8.3L635.6,114.1L635.6,114.1z"/>
			<path class="st2" d="M646.4,102.1h3v6.2h0.1c1.6-4.3,5.3-6.8,10-6.6v3.3c-5.8-0.3-9.8,3.9-9.8,9.5v14.1h-3.3V102.1z"/>
			<path class="st2" d="M664.5,116.2c0,4.7,2.5,10.5,8.7,10.5c4.7,0,7.3-2.7,8.3-6.8h3.3c-1.4,6-4.8,9.5-11.6,9.5
				c-8.5,0-12-6.5-12-14c0-7,3.5-14,12-14s11.9,7.5,11.6,14.9L664.5,116.2L664.5,116.2z M681.7,113.6c-0.2-4.9-3.3-9.5-8.5-9.5
				c-5.4,0-8.2,4.6-8.7,9.5H681.7z"/>
			<path class="st2" d="M692.2,128.7v-5.5h4.3v5.5H692.2z"/>
		</g>
	</g>
</g>
</svg>
