<?xml version="1.0" encoding="utf-8"?>
<!-- Generator: Adobe Illustrator 21.0.0, SVG Export Plug-In . SVG Version: 6.00 Build 0)  -->
<svg version="1.1" id="RGB_Master" xmlns="http://www.w3.org/2000/svg" xmlns:xlink="http://www.w3.org/1999/xlink" x="0px" y="0px"
	 viewBox="0 0 319.3 152.6" style="enable-background:new 0 0 319.3 152.6;" xml:space="preserve">
<style type="text/css">
	.st0{fill:#14AF28;}
</style>
<path class="st0" d="M95.6,23.4c-12.2,0-22.2,9.9-22.2,22.2s9.9,22.2,22.2,22.2s22.2-9.9,22.2-22.2S107.8,23.4,95.6,23.4z
	 M64.6,33.9c9.4,0,16.9-7.6,16.9-16.9S73.9,0,64.6,0S47.6,7.6,47.6,16.9S55.2,33.9,64.6,33.9z M42,27.6c-7.6,0-13.7,6.1-13.7,13.7
	S34.4,55.1,42,55.1c7.6,0,13.7-6.1,13.7-13.7S49.5,27.6,42,27.6z M22.5,33.9c5.8,0,10.5-4.7,10.5-10.5c0-5.8-4.7-10.5-10.5-10.5
	c-5.8,0-10.5,4.7-10.5,10.5C12.1,29.2,16.7,33.9,22.5,33.9z M8.5,47.3c4.7,0,8.5-3.8,8.5-8.5c0-4.7-3.8-8.5-8.5-8.5S0,34.1,0,38.8
	C0,43.5,3.8,47.3,8.5,47.3z M70.4,99.2c-5.2,0-8.8,1.9-11.3,4.4c-3.6,3.6-4.5,8.3-4.5,14.5c0,6.3,0.9,10.9,4.5,14.6
	c2.5,2.5,6.2,4.4,11.3,4.4c5.2,0,8.9-1.9,11.4-4.4c3.6-3.6,4.5-8.3,4.5-14.6c0-6.2-0.9-10.9-4.5-14.5
	C79.3,101.1,75.5,99.2,70.4,99.2z M75.9,128c-1.4,1.4-3.3,2.2-5.5,2.2c-2.2,0-4.1-0.8-5.5-2.1c-2.3-2.2-2.6-6-2.6-10
	c0-3.9,0.3-7.7,2.6-10c1.4-1.4,3.2-2.1,5.5-2.1c2.2,0,4.1,0.7,5.5,2.1c2.3,2.2,2.6,6,2.6,10C78.5,122,78.2,125.8,75.9,128z
	 M47.2,83.8l-3.1,0c-2.9,0-5.5,1.6-6.8,4.1l-13.5,26.4L10.2,87.9c-1.3-2.5-3.9-4.1-6.8-4.1l-3.1,0C0.2,83.8,0,84,0,84.2v52.1
	c0,0.2,0.2,0.4,0.4,0.4h7.4c0.2,0,0.4-0.2,0.4-0.4v-34.6l12.6,24.7c0.1,0.1,0.2,0.2,0.3,0.2h5.4c0.1,0,0.3-0.1,0.3-0.2l12.6-24.7
	v34.6c0,0.2,0.2,0.4,0.4,0.4h7.4c0.2,0,0.4-0.2,0.4-0.4V84.2C47.5,84,47.4,83.8,47.2,83.8z M59.1,85.6c-0.2,0-0.4,0.2-0.4,0.4v7.4
	c0,0.2,0.2,0.4,0.4,0.4h6.2c0.2,0,0.4-0.2,0.4-0.4v-7.4c0-0.2-0.2-0.4-0.4-0.4H59.1z M81.6,93.7c0.2,0,0.4-0.2,0.4-0.4v-7.4
	c0-0.2-0.2-0.4-0.4-0.4h-6.2c-0.2,0-0.4,0.2-0.4,0.4v7.4c0,0.2,0.2,0.4,0.4,0.4H81.6z M222.9,99.2c-8.6,0-17,5.1-17,18.9
	c0,13.8,8.5,18.9,17,18.9c4.3,0,7.6-1,10.6-3.5c0.2-0.1,0.2-0.4,0-0.5l-4.4-4.7c-0.1-0.1-0.3-0.1-0.5,0c-1.7,1.4-3.4,2-5.7,2
	c-2.9,0-5.4-1.2-7.1-3.3c-1.7-2-2.3-4.7-2.3-9c0-4.3,0.6-6.9,2.2-9c1.7-2.1,4.1-3.3,7.1-3.3c2.4,0,4,0.6,5.8,2.1
	c0.1,0.1,0.3,0.1,0.5,0l4.7-4.5c0.2-0.1,0.1-0.4,0-0.5C230.8,100.3,227.4,99.2,222.9,99.2z M260.4,113.5c-0.1-0.1-0.2-0.3-0.1-0.4
	l10.5-12.4c0.2-0.2,0-0.6-0.3-0.6h-9c-0.1,0-0.2,0-0.3,0.1l-12.9,15.2l0-24.3c0-4-3.2-7.3-7.2-7.3c-0.2,0-0.4,0.2-0.4,0.4l0,52.1
	c0,0.2,0.2,0.4,0.4,0.4h6.9c0.2,0,0.4-0.2,0.4-0.4l0-9c0-0.1,0-0.2,0.1-0.2l6.3-7.4c0.2-0.2,0.4-0.2,0.6,0l10.4,16.7
	c0.1,0.1,0.2,0.2,0.3,0.2h8.1c0.3,0,0.5-0.3,0.3-0.6L260.4,113.5z M314.4,90.2c0-1.5-1.2-2.7-2.8-2.7h-3.3v8.8h1.6v-3.5l1.1,0
	l1.8,3.5h1.8l-2-3.7C313.7,92.3,314.4,91.5,314.4,90.2z M311.4,91.6h-1.5v-2.7l1.5,0c0.9,0,1.4,0.6,1.4,1.3
	C312.8,91,312.2,91.6,311.4,91.6z M108.2,128.9l-3,0c-3.1,0-4.2-1.5-4.2-4.4l0-33.4c0-4-3.3-7.3-7.3-7.3c-0.2,0-0.4,0.2-0.4,0.4
	v41.9c0,5.6,3.2,10.5,10.4,10.5l4.4,0c0.2,0,0.4-0.2,0.4-0.4l0-6.9C108.5,129.1,108.4,128.9,108.2,128.9z M311.1,83.8
	c-4.5,0-8.2,3.7-8.1,8.2c0,4.5,3.7,8.2,8.2,8.1c4.5,0,8.2-3.7,8.1-8.2C319.3,87.4,315.6,83.8,311.1,83.8z M311.1,98.6
	c-3.7,0-6.5-2.9-6.5-6.6c0-3.7,2.9-6.7,6.5-6.7s6.5,2.9,6.5,6.6C317.6,95.7,314.8,98.6,311.1,98.6z M292.1,99.2
	c-9.8,0-16.1,7-16.1,18.9c0,14.1,7.6,18.9,17.1,18.9c5.2,0,8.6-1.2,11.7-3.5c0.2-0.1,0.2-0.4,0-0.5c0,0-3.5-3.3-4.3-4.1
	c-0.1-0.1-0.3-0.1-0.4,0c-1.8,1.2-3.8,1.8-6.8,1.8c-6.2,0-9.7-4-9.7-10.3h24.3c0.2,0,0.4-0.2,0.4-0.4l0-3
	C308.2,106.5,302.3,99.2,292.1,99.2z M283.7,115c0.1-2.2,0.2-3.3,1-5c1.2-2.7,3.9-4.6,7.5-4.6c3.6,0,6.2,1.9,7.4,4.6
	c0.7,1.7,1,2.8,1,5H283.7z M133.2,99.2c-3.5,0-6.8,1-9.3,3.5c-0.2,0.2-0.6,0.1-0.6-0.3l0-1.9c0-0.2-0.2-0.4-0.4-0.4h-7
	c-0.2,0-0.4,0.2-0.4,0.4v35.8c0,0.2,0.2,0.4,0.4,0.4l7,0c0.2,0,0.4-0.2,0.4-0.4v-20.4c0-5.9,3.6-9.8,7.9-9.8c4.3,0,7.7,2.5,7.7,8.5
	l0,21.7c0,0.2,0.2,0.4,0.4,0.4l7.3,0l0-23.2c0-4.3-1-7.9-3.9-10.7C140.4,100.5,137.1,99.2,133.2,99.2z M202.6,100.1h-7.4
	c-0.1,0-0.3,0.1-0.3,0.2l-8.4,24.4l-8.4-24.4c-0.1-0.1-0.2-0.2-0.3-0.2l-7.4,0c-0.3,0-0.4,0.3-0.3,0.5l12.3,35.7c0,0.1,0,0.2,0,0.2
	l-1.5,4.3c-1.1,3.1-2.2,4.1-5.5,4.1l-0.8,0c-0.2,0-0.4,0.2-0.3,0.4l1,7c0,0.2,0.2,0.3,0.3,0.3l1.2,0c2.9,0,5.8-0.7,7.9-2.8
	c1.1-1.1,2-2.6,2.4-3.8l15.7-45.4C203,100.4,202.8,100.1,202.6,100.1z M169.2,128.9l-3,0c-3.1,0-4.1-1.5-4.1-4.4V91.1
	c0-4-3.3-7.3-7.3-7.3c-0.2,0-0.4,0.2-0.4,0.4v41.9c0,5.6,3.2,10.5,10.4,10.5l4.4,0c0.2,0,0.4-0.2,0.4-0.4v-7
	C169.5,129.1,169.4,128.9,169.2,128.9z"/>
</svg>
